<?xml version="1.0" encoding="utf-8"?>
<!-- Generator: Adobe Illustrator 25.0.1, SVG Export Plug-In . SVG Version: 6.00 Build 0)  -->
<svg version="1.1" id="Layer_1" xmlns="http://www.w3.org/2000/svg" xmlns:xlink="http://www.w3.org/1999/xlink" x="0px" y="0px"
	 viewBox="0 0 512 512" style="enable-background:new 0 0 512 512;" xml:space="preserve">
<style type="text/css">
	.st0{fill:#832121;}
</style>
<path class="st0" d="M256,512C114.6,512,0,397.4,0,256S114.6,0,256,0s256,114.6,256,256S397.4,512,256,512z M232,256
	c0,8,4,15.5,10.7,19.1l96,64c11,8.2,25.9,5.2,32.4-5.8c8.2-11,5.2-25.9-5.8-33.3L280,243.2V120c0-13.3-10.7-24-24.9-24
	c-12.4,0-24,10.7-24,24L232,256z"/>
</svg>
