<svg xmlns="http://www.w3.org/2000/svg" viewBox="0 0 500 500"><g id="freepik--Shadow--inject-5"><ellipse cx="221.77" cy="433.53" rx="182.48" ry="19.59" style="fill:#ebebeb"></ellipse></g><g id="freepik--Floor--inject-5"><polygon points="40.02 378.04 92.51 377.79 145.01 377.71 250 377.54 354.99 377.7 407.49 377.79 459.98 378.04 407.49 378.28 354.99 378.37 250 378.54 145.01 378.37 92.51 378.28 40.02 378.04" style="fill:#263238"></polygon></g><g id="freepik--Fountain--inject-5"><path d="M274.5,149.84a26.18,26.18,0,0,0-7.38,1.6,40.72,40.72,0,0,0-6.83,3.17,42.93,42.93,0,0,0-11.46,9.62,41.84,41.84,0,0,0-7.4,13,51.67,51.67,0,0,0-2.71,14.83,51,51,0,0,1,.33-7.61A47.91,47.91,0,0,1,240.7,177a40.93,40.93,0,0,1,7.37-13.39,41.82,41.82,0,0,1,11.85-9.65C264.41,151.57,269.39,149.76,274.5,149.84Z" style="fill:#dbdbdb"></path><path d="M272.58,149.84a33.07,33.07,0,0,0-7.9,1.46,46.25,46.25,0,0,0-7.45,2.92,48.45,48.45,0,0,0-13,9.15,39.63,39.63,0,0,0-9,13.08,40.46,40.46,0,0,0-2.39,7.63,51.91,51.91,0,0,0-1,8,44.58,44.58,0,0,1,.48-8.07,41.65,41.65,0,0,1,2.15-7.83,39.21,39.21,0,0,1,9-13.5,46.89,46.89,0,0,1,13.4-9.13A37.23,37.23,0,0,1,272.58,149.84Z" style="fill:#dbdbdb"></path><path d="M273.72,149.84a17.34,17.34,0,0,0-6.54,1.95,30.06,30.06,0,0,0-5.75,3.68,38.4,38.4,0,0,0-8.84,10.33,47.93,47.93,0,0,0-5.12,12.64l-.79,3.35-.5,3.4c-.09.57-.21,1.13-.26,1.71l-.12,1.72-.28,3.44a55.15,55.15,0,0,1,1.2-13.79,46.4,46.4,0,0,1,5-13A37.52,37.52,0,0,1,261,154.87a30.09,30.09,0,0,1,6-3.52A16.33,16.33,0,0,1,273.72,149.84Z" style="fill:#dbdbdb"></path><path d="M273.56,149.84a11.65,11.65,0,0,0-5.74,2.38,23.37,23.37,0,0,0-4.52,4.31,38.89,38.89,0,0,0-6.21,10.83,28.13,28.13,0,0,0-1.08,2.95c-.31,1-.67,2-.93,3l-.73,3.06c-.14.51-.23,1-.32,1.55l-.28,1.55a103.6,103.6,0,0,0-1.36,12.58c0-1.05,0-2.11,0-3.17s0-2.13,0-3.19c.16-2.11.25-4.24.6-6.34A53.68,53.68,0,0,1,256.16,167a37.58,37.58,0,0,1,6.56-11,23.39,23.39,0,0,1,4.83-4.21l1.4-.8,1.48-.62c.5-.2,1-.28,1.54-.43A14.39,14.39,0,0,1,273.56,149.84Z" style="fill:#dbdbdb"></path><path d="M273.72,149.84a5.17,5.17,0,0,0-2.66,1.11A11.42,11.42,0,0,0,269,153a26.77,26.77,0,0,0-3.09,4.94,60.69,60.69,0,0,0-4.18,10.93,89.56,89.56,0,0,0-2.58,11.46,111.88,111.88,0,0,0-1.23,11.72c-.1-2-.08-3.94,0-5.92s.26-3.94.49-5.91a77.14,77.14,0,0,1,2.38-11.63,55.59,55.59,0,0,1,4.46-11,26.35,26.35,0,0,1,3.41-4.9,11.41,11.41,0,0,1,2.26-2A4.91,4.91,0,0,1,273.72,149.84Z" style="fill:#dbdbdb"></path><path d="M272.58,149.84a1.57,1.57,0,0,0-1.05.78,7.49,7.49,0,0,0-.68,1.16,21,21,0,0,0-1,2.54,52.76,52.76,0,0,0-1.37,5.26c-.75,3.55-1.37,7.14-1.85,10.74s-.89,7.21-1.23,10.84c-.17,1.81-.31,3.62-.42,5.44s-.22,3.64-.35,5.46c-.19-3.64-.17-7.3,0-11s.52-7.29,1-10.92a92.38,92.38,0,0,1,2.09-10.78,53.12,53.12,0,0,1,1.66-5.24,20.39,20.39,0,0,1,1.18-2.5,7.47,7.47,0,0,1,.79-1.14A1.69,1.69,0,0,1,272.58,149.84Z" style="fill:#dbdbdb"></path><path d="M272.58,149.84c.2,3.5.3,7,.38,10.51s.1,7,.12,10.51,0,7-.12,10.51l-.14,5.26c-.08,1.75-.13,3.5-.24,5.25-.12-1.75-.17-3.5-.25-5.25l-.14-5.26c-.09-3.5-.1-7-.11-10.51s0-7,.11-10.51S272.37,153.34,272.58,149.84Z" style="fill:#dbdbdb"></path><path d="M367.75,149.84c5.11-.08,10.08,1.73,14.57,4.1a42,42,0,0,1,11.86,9.65A40.72,40.72,0,0,1,401.54,177a45.73,45.73,0,0,1,1.65,7.47,49.71,49.71,0,0,1,.33,7.61,51.67,51.67,0,0,0-2.71-14.83,41.64,41.64,0,0,0-7.4-13A42.78,42.78,0,0,0,382,154.61a40.72,40.72,0,0,0-6.83-3.17A26.19,26.19,0,0,0,367.75,149.84Z" style="fill:#dbdbdb"></path><path d="M369.67,149.84a37.22,37.22,0,0,1,15.67,3.69,46.89,46.89,0,0,1,13.4,9.13,39.07,39.07,0,0,1,9,13.5,40.94,40.94,0,0,1,2.16,7.83,46.46,46.46,0,0,1,.48,8.07,53.18,53.18,0,0,0-1-8,42,42,0,0,0-2.39-7.63,39.78,39.78,0,0,0-9-13.08,48.45,48.45,0,0,0-13-9.15,46.35,46.35,0,0,0-7.46-2.92A33,33,0,0,0,369.67,149.84Z" style="fill:#dbdbdb"></path><path d="M368.53,149.84a16.28,16.28,0,0,1,6.74,1.51,29.54,29.54,0,0,1,6,3.52,37.52,37.52,0,0,1,9.22,10.42,45.8,45.8,0,0,1,5,13,54.69,54.69,0,0,1,1.2,13.79l-.27-3.44-.13-1.72c-.05-.58-.17-1.14-.25-1.71l-.51-3.4-.79-3.35a47.93,47.93,0,0,0-5.12-12.64,38.37,38.37,0,0,0-8.83-10.33,30.37,30.37,0,0,0-5.75-3.68A17.39,17.39,0,0,0,368.53,149.84Z" style="fill:#dbdbdb"></path><path d="M368.68,149.84a14,14,0,0,1,1.59.13,15.93,15.93,0,0,1,1.54.43l1.49.62,1.39.8a23.7,23.7,0,0,1,4.84,4.21,37.33,37.33,0,0,1,6.55,11,53.18,53.18,0,0,1,3.17,12.37c.35,2.1.45,4.23.6,6.34.1,1.06,0,2.13,0,3.19s0,2.12,0,3.17a105.64,105.64,0,0,0-1.37-12.58l-.28-1.55c-.08-.52-.18-1-.31-1.55l-.74-3.06c-.26-1-.62-2-.92-3a28.19,28.19,0,0,0-1.09-2.95,38.86,38.86,0,0,0-6.2-10.83,23.14,23.14,0,0,0-4.53-4.31A11.57,11.57,0,0,0,368.68,149.84Z" style="fill:#dbdbdb"></path><path d="M368.53,149.84a5,5,0,0,1,2.81.89,11.7,11.7,0,0,1,2.26,2,26.3,26.3,0,0,1,3.4,4.9,56.23,56.23,0,0,1,4.47,11,78.36,78.36,0,0,1,2.37,11.63c.24,2,.4,3.94.5,5.91s.07,4,0,5.92a111.88,111.88,0,0,0-1.23-11.72,89.52,89.52,0,0,0-2.57-11.46A61.45,61.45,0,0,0,376.33,158a26.3,26.3,0,0,0-3.1-4.94,11.37,11.37,0,0,0-2-2.06A5.21,5.21,0,0,0,368.53,149.84Z" style="fill:#dbdbdb"></path><path d="M369.67,149.84a1.7,1.7,0,0,1,1.16.68,6.28,6.28,0,0,1,.79,1.14,20.45,20.45,0,0,1,1.19,2.5,53.06,53.06,0,0,1,1.65,5.24,92.41,92.41,0,0,1,2.1,10.78c.49,3.63.84,7.27,1,10.92a105.44,105.44,0,0,1,0,11c-.12-1.82-.19-3.64-.34-5.46s-.25-3.63-.43-5.44c-.33-3.63-.71-7.24-1.22-10.84s-1.1-7.19-1.85-10.74c-.38-1.77-.82-3.54-1.37-5.26a22.84,22.84,0,0,0-1-2.54,7.43,7.43,0,0,0-.67-1.16A1.59,1.59,0,0,0,369.67,149.84Z" style="fill:#dbdbdb"></path><path d="M369.67,149.84c.2,3.5.3,7,.38,10.51s.11,7,.12,10.51,0,7-.12,10.51l-.14,5.26c-.08,1.75-.13,3.5-.24,5.25-.12-1.75-.16-3.5-.25-5.25l-.14-5.26c-.09-3.5-.1-7-.11-10.51s0-7,.12-10.51S369.46,153.34,369.67,149.84Z" style="fill:#dbdbdb"></path><path d="M248.56,192.06a22.59,22.59,0,0,0-8,2,40.07,40.07,0,0,0-7.21,4.16,65.32,65.32,0,0,0-12.1,11.39,105.34,105.34,0,0,0-16.65,28.72,144.61,144.61,0,0,0-5.23,15.84c-1.5,5.37-2.52,10.84-3.52,16.32-.41,2.76-.9,5.5-1.19,8.27l-.49,4.15-.37,4.17c-.3,2.77-.39,5.56-.58,8.34s-.18,5.58-.29,8.37c0-2.79,0-5.58,0-8.38s.13-5.58.35-8.37l.3-4.18.42-4.17c.24-2.79.69-5.55,1.06-8.32a153.48,153.48,0,0,1,8.58-32.4,104.14,104.14,0,0,1,17-28.86A65.87,65.87,0,0,1,233,197.85a40.81,40.81,0,0,1,7.38-4A21.88,21.88,0,0,1,248.56,192.06Z" style="fill:#dbdbdb"></path><path d="M245.57,192.06c-5.81.25-11.28,2.6-16.21,5.52a67.64,67.64,0,0,0-13.53,10.66,99.17,99.17,0,0,0-19.5,28.3A132,132,0,0,0,190,252.61a170,170,0,0,0-4.26,16.76c-1.06,5.67-2,11.38-2.47,17.14-.34,2.87-.48,5.76-.68,8.64-.11,1.44-.12,2.89-.18,4.33l-.15,4.34A179.13,179.13,0,0,1,185,269.23a150.71,150.71,0,0,1,4.14-16.89,131.54,131.54,0,0,1,6.3-16.23,98.17,98.17,0,0,1,19.86-28.42,68.75,68.75,0,0,1,13.83-10.54,46.72,46.72,0,0,1,7.93-3.58A26.67,26.67,0,0,1,245.57,192.06Z" style="fill:#dbdbdb"></path><path d="M247.35,192.06a15.73,15.73,0,0,0-7.37,2.61,34,34,0,0,0-6.12,5,65.59,65.59,0,0,0-9.62,12.48,120.73,120.73,0,0,0-12.31,29,194.52,194.52,0,0,0-6.27,31l-.49,3.94-.39,3.94c-.28,2.63-.43,5.27-.63,7.9s-.29,5.28-.44,7.93l-.24,7.93c0-2.65-.05-5.29,0-7.94s.08-5.3.21-7.94.26-5.29.49-7.93l.32-4,.42-4c.24-2.64.66-5.26,1-7.89l.65-3.92c.21-1.31.44-2.61.71-3.91,1-5.22,2.25-10.38,3.7-15.48a134.28,134.28,0,0,1,5.33-15,101.24,101.24,0,0,1,7.29-14.16,66.2,66.2,0,0,1,9.93-12.43,34.13,34.13,0,0,1,6.32-4.85A15.41,15.41,0,0,1,247.35,192.06Z" style="fill:#dbdbdb"></path><path d="M247.11,192.06a8.1,8.1,0,0,0-3.58,1.13l-.81.47-.76.56a15.26,15.26,0,0,0-1.46,1.2,33.1,33.1,0,0,0-4.87,5.75,72.44,72.44,0,0,0-7.09,13.33,155.22,155.22,0,0,0-8.54,29c-1,4.95-1.83,9.94-2.56,14.94s-1.25,10-1.7,15.07-.79,10.08-1.05,15.13l-.33,7.59-.21,7.59-.06-7.6.11-7.59c.16-5.07.39-10.13.78-15.19A247.06,247.06,0,0,1,219,243.3a148.94,148.94,0,0,1,8.81-29.11c1-2.31,2.11-4.62,3.35-6.84a55.89,55.89,0,0,1,4-6.46,33.5,33.5,0,0,1,5.1-5.67C242.24,193.61,244.52,192.1,247.11,192.06Z" style="fill:#dbdbdb"></path><path d="M247.35,192.06a5,5,0,0,0-3.18,1.61,16,16,0,0,0-2.27,2.84,42.67,42.67,0,0,0-3.3,6.5,112.1,112.1,0,0,0-4.66,13.85,263.35,263.35,0,0,0-6.05,28.63c-1.58,9.63-2.71,19.33-3.56,29.06q-.63,7.31-1,14.62c-.28,4.88-.43,9.76-.55,14.65-.2-9.78.1-19.57.79-29.33s1.82-19.49,3.34-29.16a244.4,244.4,0,0,1,6.29-28.68,113.41,113.41,0,0,1,5-13.84,43.84,43.84,0,0,1,3.53-6.45,15.59,15.59,0,0,1,2.39-2.8A5.1,5.1,0,0,1,247.35,192.06Z" style="fill:#dbdbdb"></path><path d="M245.57,192.06c-.61.08-1,.65-1.26,1.13a10.54,10.54,0,0,0-.74,1.6c-.42,1.1-.75,2.23-1.06,3.37-.6,2.28-1.07,4.59-1.5,6.91-.86,4.64-1.55,9.31-2.14,14q-1.78,14-2.85,28.17c-.78,9.41-1.33,18.84-1.78,28.27q-.35,7.06-.56,14.15c-.18,4.72-.27,9.45-.39,14.17-.2-9.45-.11-18.9.18-28.35s.85-18.89,1.56-28.32,1.72-18.83,3.08-28.2c.69-4.67,1.46-9.34,2.43-14,.5-2.31,1-4.61,1.72-6.88a33.38,33.38,0,0,1,1.17-3.36,10.76,10.76,0,0,1,.82-1.58C244.57,192.68,245,192.11,245.57,192.06Z" style="fill:#dbdbdb"></path><path d="M245.57,192.06c.21,9.28.31,18.55.39,27.82l.11,27.82L246,275.52l-.14,13.91-.25,13.92-.24-13.92-.14-13.91-.12-27.82.12-27.82C245.27,210.61,245.37,201.34,245.57,192.06Z" style="fill:#dbdbdb"></path><path d="M393.68,192.06a21.88,21.88,0,0,1,8.15,1.79,40.48,40.48,0,0,1,7.38,4,65.87,65.87,0,0,1,12.41,11.29,103.89,103.89,0,0,1,17,28.86,154.1,154.1,0,0,1,8.59,32.4c.36,2.77.81,5.53,1.06,8.32l.42,4.17.29,4.18c.23,2.79.24,5.58.36,8.37s0,5.59,0,8.38c-.11-2.79-.15-5.58-.29-8.37s-.28-5.57-.58-8.34l-.36-4.17-.49-4.15c-.29-2.77-.78-5.51-1.19-8.27-1-5.48-2-10.95-3.52-16.32a149,149,0,0,0-5.23-15.84A105.86,105.86,0,0,0,421,209.64a65.7,65.7,0,0,0-12.11-11.39,39.64,39.64,0,0,0-7.2-4.16A22.64,22.64,0,0,0,393.68,192.06Z" style="fill:#dbdbdb"></path><path d="M396.67,192.06a26.73,26.73,0,0,1,8.53,1.51,46.63,46.63,0,0,1,7.92,3.58A68.19,68.19,0,0,1,427,207.69a98.17,98.17,0,0,1,19.86,28.42,130,130,0,0,1,6.3,16.23,150.75,150.75,0,0,1,4.15,16.89A179.91,179.91,0,0,1,460,303.82l-.15-4.34c-.05-1.44-.06-2.89-.18-4.33-.2-2.88-.34-5.77-.68-8.64a170.43,170.43,0,0,0-2.47-17.14,167.19,167.19,0,0,0-4.26-16.76,130.43,130.43,0,0,0-6.33-16.07,99,99,0,0,0-19.5-28.3,67.36,67.36,0,0,0-13.53-10.66C408,194.66,402.48,192.31,396.67,192.06Z" style="fill:#dbdbdb"></path><path d="M394.9,192.06a15.37,15.37,0,0,1,7.5,2.39,34.13,34.13,0,0,1,6.32,4.85,65.41,65.41,0,0,1,9.93,12.43,99.14,99.14,0,0,1,7.29,14.16,132.3,132.3,0,0,1,5.33,15c1.46,5.1,2.73,10.26,3.7,15.48.27,1.3.5,2.6.71,3.91l.66,3.92c.35,2.63.77,5.25,1,7.89l.42,4,.32,4c.24,2.64.35,5.28.49,7.93s.14,5.29.22,7.94,0,5.29,0,7.94l-.25-7.93c-.15-2.65-.23-5.29-.44-7.93s-.34-5.27-.63-7.9l-.38-3.94-.49-3.94a193.45,193.45,0,0,0-6.28-31,120.73,120.73,0,0,0-12.31-29,65.19,65.19,0,0,0-9.62-12.48,33.6,33.6,0,0,0-6.11-5A15.77,15.77,0,0,0,394.9,192.06Z" style="fill:#dbdbdb"></path><path d="M395.14,192.06c2.58,0,4.86,1.55,6.78,3.16a33.45,33.45,0,0,1,5.09,5.67,55.89,55.89,0,0,1,4,6.46c1.24,2.22,2.32,4.53,3.36,6.84a149.63,149.63,0,0,1,8.81,29.11,251,251,0,0,1,4,30.14c.39,5.06.61,10.12.78,15.19l.1,7.59-.06,7.6-.2-7.59-.33-7.59c-.27-5.05-.58-10.1-1.06-15.13s-1-10.06-1.7-15.07-1.53-10-2.56-14.94a154.48,154.48,0,0,0-8.54-29,72.44,72.44,0,0,0-7.09-13.33,32.67,32.67,0,0,0-4.87-5.75,16.48,16.48,0,0,0-1.45-1.2l-.77-.56-.81-.47A8,8,0,0,0,395.14,192.06Z" style="fill:#dbdbdb"></path><path d="M394.9,192.06a5.13,5.13,0,0,1,3.28,1.5,16,16,0,0,1,2.38,2.8,42.05,42.05,0,0,1,3.53,6.45,113.46,113.46,0,0,1,5,13.84,246.45,246.45,0,0,1,6.29,28.68c1.51,9.67,2.65,19.4,3.34,29.16s1,19.55.78,29.33c-.12-4.89-.26-9.77-.54-14.65s-.58-9.75-1-14.62c-.85-9.73-2-19.43-3.56-29.06a263.32,263.32,0,0,0-6-28.63A113.79,113.79,0,0,0,403.65,203a43.65,43.65,0,0,0-3.31-6.5,15.56,15.56,0,0,0-2.27-2.84A5,5,0,0,0,394.9,192.06Z" style="fill:#dbdbdb"></path><path d="M396.67,192.06c.62.05,1,.62,1.33,1.09a10.7,10.7,0,0,1,.81,1.58,33.38,33.38,0,0,1,1.17,3.36c.68,2.27,1.23,4.57,1.73,6.88,1,4.64,1.73,9.31,2.42,14,1.36,9.37,2.29,18.78,3.09,28.2s1.26,18.87,1.55,28.32.39,18.9.18,28.35c-.11-4.72-.21-9.45-.39-14.17s-.32-9.44-.56-14.15c-.45-9.43-1-18.86-1.78-28.27s-1.65-18.81-2.84-28.17c-.6-4.68-1.28-9.35-2.15-14-.43-2.32-.9-4.63-1.5-6.91a32.92,32.92,0,0,0-1.06-3.37,10.54,10.54,0,0,0-.74-1.6C397.64,192.71,397.29,192.14,396.67,192.06Z" style="fill:#dbdbdb"></path><path d="M396.67,192.06c.21,9.28.3,18.55.38,27.82l.12,27.82-.11,27.82-.14,13.91-.25,13.92-.24-13.92-.14-13.91-.12-27.82.12-27.82C396.37,210.61,396.47,201.34,396.67,192.06Z" style="fill:#dbdbdb"></path><path d="M288.7,149.84c.9-1.44,1.77-2.9,2.72-4.31l1.53-2a20.61,20.61,0,0,1,1.6-2l1.71-1.91c.56-.64,1.23-1.18,1.84-1.78a46.13,46.13,0,0,1,3.92-3.32,39.36,39.36,0,0,1,9-4.91,29.87,29.87,0,0,1,10.11-2.1h0a29.6,29.6,0,0,1,9.89,2.06,35.4,35.4,0,0,1,8.79,4.85c.66.51,1.29,1.07,1.94,1.61.31.27.65.52.95.81l.89.89c.58.6,1.19,1.17,1.75,1.8l1.6,1.93c.26.32.53.64.78,1l.71,1,1.4,2.07c.87,1.42,1.63,2.9,2.44,4.35-.9-1.4-1.74-2.83-2.66-4.2l-1.49-2-.74-1c-.26-.32-.54-.62-.82-.93l-1.63-1.85c-.57-.6-1.19-1.15-1.78-1.72l-.89-.85c-.31-.28-.64-.52-1-.78-.65-.51-1.28-1-1.94-1.52a37.38,37.38,0,0,0-8.66-4.62,28.38,28.38,0,0,0-9.53-1.91h0a29.23,29.23,0,0,0-9.75,1.95,41.68,41.68,0,0,0-8.88,4.69,46.32,46.32,0,0,0-4,3.16c-.61.57-1.28,1.09-1.86,1.71l-1.74,1.84a21.41,21.41,0,0,0-1.67,1.9l-1.61,2C290.63,147.05,289.69,148.46,288.7,149.84Z" style="fill:#dbdbdb"></path><path d="M297,149.84l1.76-3.89c.66-1.25,1.34-2.5,2-3.75a44.44,44.44,0,0,1,5.16-6.84,27.11,27.11,0,0,1,6.71-5.38,22,22,0,0,1,4-1.74,14.24,14.24,0,0,1,4.35-.77h-.05a14.72,14.72,0,0,1,4.27.76,21.3,21.3,0,0,1,3.91,1.72,25.91,25.91,0,0,1,6.56,5.36,39.37,39.37,0,0,1,4.87,6.87c.64,1.24,1.25,2.51,1.86,3.76l1.55,3.9-1.79-3.78c-.67-1.22-1.35-2.44-2-3.64a39,39,0,0,0-5-6.59,27,27,0,0,0-6.43-5.09,20.73,20.73,0,0,0-3.76-1.6,13.92,13.92,0,0,0-3.94-.67h-.05a13.71,13.71,0,0,0-4,.68,22.56,22.56,0,0,0-3.83,1.62,29.23,29.23,0,0,0-6.6,5.12,44.11,44.11,0,0,0-5.29,6.57c-.75,1.2-1.5,2.4-2.22,3.62Z" style="fill:#dbdbdb"></path><path d="M302.9,149.91l1.22-3.58c.43-1.18.95-2.33,1.42-3.51s1.13-2.26,1.69-3.4,1.25-2.2,2-3.24l1.11-1.56c.4-.49.83-1,1.24-1.45s.89-.92,1.34-1.38a15.89,15.89,0,0,1,1.46-1.26,16.59,16.59,0,0,1,3.29-2,9.36,9.36,0,0,1,3.87-1h-.06a9.44,9.44,0,0,1,3.81,1,15.51,15.51,0,0,1,3.25,2,21.32,21.32,0,0,1,2.74,2.63l1.21,1.46,1.06,1.56a17.73,17.73,0,0,1,1,1.61l.92,1.64c.51,1.14,1.09,2.25,1.55,3.41s.9,2.33,1.29,3.51l1.06,3.58L338,146.42c-.45-1.15-1-2.27-1.48-3.4s-1.12-2.21-1.67-3.31l-1-1.58a17.09,17.09,0,0,0-1-1.54,24.2,24.2,0,0,0-4.93-5.36,14.73,14.73,0,0,0-3.08-1.87,8.64,8.64,0,0,0-3.37-.82h-.06a8.73,8.73,0,0,0-3.41.82,15.54,15.54,0,0,0-3.12,1.89,26,26,0,0,0-5.08,5.38c-.76,1-1.39,2.06-2.08,3.11s-1.23,2.17-1.79,3.29-1.12,2.25-1.62,3.4Z" style="fill:#dbdbdb"></path><path d="M307.3,149.91c.52-2.22,1.08-4.42,1.78-6.6a55.16,55.16,0,0,1,2.53-6.37,26.7,26.7,0,0,1,3.75-5.81,13.67,13.67,0,0,1,2.62-2.35,6,6,0,0,1,.77-.46,6.16,6.16,0,0,1,.82-.39,4.81,4.81,0,0,1,1.88-.39h-.08a4.84,4.84,0,0,1,1.85.4,8.5,8.5,0,0,1,1.58.84l.72.52.66.58a14.28,14.28,0,0,1,1.21,1.25,25.47,25.47,0,0,1,3.63,5.81,50.87,50.87,0,0,1,2.35,6.38c.64,2.17,1.13,4.38,1.57,6.59l-1-3.24c-.3-1.08-.72-2.13-1.07-3.2a55.1,55.1,0,0,0-2.58-6.2,29,29,0,0,0-3.62-5.54,12.7,12.7,0,0,0-1.16-1.16l-.61-.53-.66-.46a7.26,7.26,0,0,0-1.41-.73,4,4,0,0,0-1.43-.31h-.08a3.86,3.86,0,0,0-1.44.31,4.17,4.17,0,0,0-.72.32,5.23,5.23,0,0,0-.69.41,12.36,12.36,0,0,0-2.47,2.16,29.87,29.87,0,0,0-3.75,5.55,56.25,56.25,0,0,0-2.75,6.19c-.38,1.06-.83,2.11-1.17,3.19Z" style="fill:#dbdbdb"></path><path d="M328.69,151.5H313.56S315.33,128,321.12,128,328.69,151.5,328.69,151.5Z" style="fill:#c7c7c7"></path><path d="M368.16,154.08s-5.09,14-14.27,17.52-25,6.35-25.85,9.74,5.09,10.59,5.09,16.95-3.39,11.58-12,11.58-12-5.22-12-11.58,5.93-13.56,5.08-16.95-16.67-6.21-25.84-9.74-14.27-17.52-14.27-17.52Z" style="fill:#c7c7c7"></path><path d="M368.16,154.08a45.63,45.63,0,0,1-3.34,6.84H277.43a45.63,45.63,0,0,1-3.34-6.84Z" style="fill:#a6a6a6"></path><rect x="269.35" y="149.84" width="103.54" height="5.51" style="fill:#c7c7c7"></rect><path d="M313,175.56c-4.83-1-9.63-2.14-14.36-3.54a35.64,35.64,0,0,1-6.93-2.69,20.73,20.73,0,0,1-3.15-2.05,13,13,0,0,1-1.4-1.29,4,4,0,0,1-1.05-1.75.84.84,0,0,1,.28-.77,1.18,1.18,0,0,1,.66-.18,4.55,4.55,0,0,1,1,.14,15.61,15.61,0,0,1,1.8.55c1.18.41,2.32.89,3.45,1.38,2.27,1,4.5,2,6.7,3.15Q306.64,171.84,313,175.56Zm0,0c-4.4-2.22-8.8-4.43-13.25-6.53-2.23-1-4.45-2.09-6.72-3-1.13-.48-2.26-.94-3.41-1.34a16.33,16.33,0,0,0-1.74-.51,4.12,4.12,0,0,0-.82-.11.48.48,0,0,0-.23,0c.05,0,0,0,0,.07a3.36,3.36,0,0,0,.85,1.36,10.73,10.73,0,0,0,1.3,1.22,19.1,19.1,0,0,0,3,2,39.26,39.26,0,0,0,6.78,2.74c2.33.77,4.7,1.45,7.07,2.12S310.66,174.91,313,175.56Z" style="fill:#a6a6a6"></path><path d="M319,175.56c-.71-2.21-1.43-4.41-2.28-6.55a27.39,27.39,0,0,0-1.42-3.11,6.62,6.62,0,0,0-.94-1.35,1.56,1.56,0,0,0-.56-.43.71.71,0,0,0-.28-.06.84.84,0,0,0-.29.05.42.42,0,0,0-.27.37,2,2,0,0,0,0,.73,7.61,7.61,0,0,0,.52,1.57,28.35,28.35,0,0,0,1.62,3C316.33,171.78,317.66,173.67,319,175.56Zm0,0a43.14,43.14,0,0,1-4.35-5.45,21.33,21.33,0,0,1-1.75-3.05,8.57,8.57,0,0,1-.61-1.7,2.74,2.74,0,0,1-.05-1,1.18,1.18,0,0,1,.72-1,1.58,1.58,0,0,1,.55-.09,1.49,1.49,0,0,1,.57.12,2.41,2.41,0,0,1,.8.62,7.29,7.29,0,0,1,1,1.51,20.78,20.78,0,0,1,1.36,3.24A46.45,46.45,0,0,1,319,175.56Z" style="fill:#a6a6a6"></path><path d="M316.55,175.56c-1.16-1.32-2.36-2.61-3.61-3.83a44.6,44.6,0,0,0-3.88-3.53,26.21,26.21,0,0,0-4.27-2.95,11.1,11.1,0,0,0-2.36-.95,5.26,5.26,0,0,0-1.23-.2,2.26,2.26,0,0,0-1.12.06l-.07.05v0a1.42,1.42,0,0,0,.25.43,6.08,6.08,0,0,0,.87.89,25,25,0,0,0,2.05,1.6c1.42,1,2.9,1.95,4.37,2.9C310.51,172,313.53,173.75,316.55,175.56Zm0,0c-3.17-1.54-6.26-3.21-9.3-5-1.52-.88-3-1.83-4.47-2.83-.72-.51-1.44-1-2.12-1.62a7,7,0,0,1-1-1,1.91,1.91,0,0,1-.39-.71.81.81,0,0,1,.06-.58.91.91,0,0,1,.42-.37,2.85,2.85,0,0,1,1.48-.11,5.62,5.62,0,0,1,1.36.24,11.47,11.47,0,0,1,2.5,1,23.42,23.42,0,0,1,4.33,3.11A50.09,50.09,0,0,1,316.55,175.56Z" style="fill:#a6a6a6"></path><path d="M329.21,175.56c2.38-.65,4.76-1.28,7.12-2s4.73-1.35,7.07-2.12a39.26,39.26,0,0,0,6.78-2.74,19.57,19.57,0,0,0,3-2,10.73,10.73,0,0,0,1.3-1.22,3.47,3.47,0,0,0,.85-1.36c0-.08,0-.12,0-.07s-.11,0-.22,0a4.31,4.31,0,0,0-.83.11,16.87,16.87,0,0,0-1.73.51c-1.15.4-2.29.86-3.42,1.34-2.26.95-4.48,2-6.71,3C338,171.13,333.61,173.34,329.21,175.56Zm0,0q6.38-3.74,13-7.05c2.19-1.12,4.43-2.16,6.69-3.15,1.14-.49,2.28-1,3.46-1.38a15,15,0,0,1,1.8-.55,4.47,4.47,0,0,1,1-.14,1.18,1.18,0,0,1,.66.18.8.8,0,0,1,.27.77,3.86,3.86,0,0,1-1,1.75,12.07,12.07,0,0,1-1.39,1.29,20.73,20.73,0,0,1-3.15,2.05,35.89,35.89,0,0,1-6.93,2.69C338.83,173.42,334,174.57,329.21,175.56Z" style="fill:#a6a6a6"></path><path d="M321.12,175.56a38.14,38.14,0,0,1-1.54-6.17,14.9,14.9,0,0,1-.22-3.21,6.53,6.53,0,0,1,.3-1.66,2.28,2.28,0,0,1,.5-.8,1.34,1.34,0,0,1,1.93,0,2.14,2.14,0,0,1,.5.8,6.12,6.12,0,0,1,.3,1.66,14.9,14.9,0,0,1-.22,3.21A36.9,36.9,0,0,1,321.12,175.56Zm0,0c.38-2.09.77-4.15,1-6.24a20.18,20.18,0,0,0,.11-3.1,5.19,5.19,0,0,0-.29-1.44c-.17-.45-.46-.71-.79-.72s-.63.27-.8.72a5.19,5.19,0,0,0-.29,1.44,19,19,0,0,0,.11,3.1C320.36,171.41,320.74,173.47,321.12,175.56Z" style="fill:#a6a6a6"></path><path d="M323.24,175.56a47.73,47.73,0,0,1,1.73-6.75,20.83,20.83,0,0,1,1.37-3.24,7.66,7.66,0,0,1,1-1.51,2.36,2.36,0,0,1,.81-.62,1.48,1.48,0,0,1,.56-.12,1.6,1.6,0,0,1,.56.09,1.18,1.18,0,0,1,.72,1,3,3,0,0,1-.06,1,8.55,8.55,0,0,1-.6,1.7,22.33,22.33,0,0,1-1.75,3.05A44,44,0,0,1,323.24,175.56Zm0,0c1.34-1.89,2.68-3.78,3.86-5.76a32.49,32.49,0,0,0,1.62-3,7.61,7.61,0,0,0,.52-1.57,2.3,2.3,0,0,0,0-.73.46.46,0,0,0-.27-.37.85.85,0,0,0-.3-.05.7.7,0,0,0-.27.06,1.68,1.68,0,0,0-.57.43,7,7,0,0,0-.94,1.35,29.25,29.25,0,0,0-1.42,3.11C324.67,171.15,324,173.35,323.24,175.56Z" style="fill:#a6a6a6"></path><path d="M325.7,175.56a49.12,49.12,0,0,1,7.11-7.8,23.42,23.42,0,0,1,4.33-3.11,11.47,11.47,0,0,1,2.5-1,5.54,5.54,0,0,1,1.36-.24,2.81,2.81,0,0,1,1.47.11.8.8,0,0,1,.49,1,1.91,1.91,0,0,1-.39.71,7.56,7.56,0,0,1-1,1,25.43,25.43,0,0,1-2.13,1.62c-1.46,1-2.94,1.95-4.46,2.83Q330.44,173.24,325.7,175.56Zm0,0c3-1.81,6-3.6,9-5.48,1.47-1,2.95-1.88,4.37-2.9a25,25,0,0,0,2.05-1.6,6.63,6.63,0,0,0,.87-.89,1.19,1.19,0,0,0,.24-.43s0-.07,0,0l-.07-.05a2.26,2.26,0,0,0-1.12-.06,5.18,5.18,0,0,0-1.23.2,10.9,10.9,0,0,0-2.36.95,26.29,26.29,0,0,0-4.28,2.95,46,46,0,0,0-3.87,3.53C328.06,173,326.86,174.24,325.7,175.56Z" style="fill:#a6a6a6"></path><path d="M418.63,200.85s-10.54,29-29.57,36.32-51.83,13.17-53.59,20.2,10.54,22,10.54,35.14-7,24-24.88,24-24.9-10.83-24.9-24,12.31-28.12,10.54-35.14-34.55-12.89-53.58-20.2-29.57-36.32-29.57-36.32Z" style="fill:#c7c7c7"></path><path d="M418.63,200.85A93,93,0,0,1,411.71,215H230.54a94.14,94.14,0,0,1-6.92-14.19Z" style="fill:#a6a6a6"></path><rect x="213.8" y="192.06" width="214.65" height="11.42" style="fill:#c7c7c7"></rect><path d="M302.81,246.28c-10.91-2.39-21.75-5.05-32.45-8.27a82.13,82.13,0,0,1-15.64-6.12,46.67,46.67,0,0,1-7.07-4.62,26.58,26.58,0,0,1-3.12-2.89,14.93,14.93,0,0,1-1.35-1.69,5.31,5.31,0,0,1-.93-2.1,1.48,1.48,0,0,1,.47-1.42,2.21,2.21,0,0,1,1.3-.33,10.24,10.24,0,0,1,2.18.29,39.65,39.65,0,0,1,4.06,1.23c2.65.93,5.23,2,7.8,3.11q7.69,3.34,15.18,7.09Q288.24,238,302.81,246.28Zm0,0c-5-2.57-9.91-5.14-14.9-7.63s-10-5-15-7.4-10.07-4.77-15.2-6.95c-2.56-1.08-5.14-2.13-7.76-3a37.87,37.87,0,0,0-3.95-1.17,9.14,9.14,0,0,0-2-.27,1.47,1.47,0,0,0-.71.15c-.06,0-.13.22-.08.49a4.55,4.55,0,0,0,.76,1.68,14.55,14.55,0,0,0,1.25,1.59,25.69,25.69,0,0,0,3,2.8,46,46,0,0,0,6.9,4.56c4.85,2.71,10.15,4.44,15.43,6.19s10.67,3.23,16.05,4.71S297.4,244.89,302.81,246.28Z" style="fill:#a6a6a6"></path><path d="M316.33,246.28c-.74-2.52-1.48-5-2.31-7.52s-1.64-5-2.59-7.41a59.74,59.74,0,0,0-3.19-7.11,16.15,16.15,0,0,0-2.17-3.13,4.06,4.06,0,0,0-1.39-1.06,2,2,0,0,0-.75-.17l-.42,0c-.12,0-.26.06-.37.1a1.32,1.32,0,0,0-.82,1.12,4.87,4.87,0,0,0,.09,1.77,17.38,17.38,0,0,0,1.23,3.62,62.39,62.39,0,0,0,3.72,6.86c1.36,2.23,2.82,4.4,4.33,6.54S314.75,244.18,316.33,246.28Zm0,0a111,111,0,0,1-9.62-12.48,50.79,50.79,0,0,1-3.9-6.9,18.6,18.6,0,0,1-1.34-3.8,6.24,6.24,0,0,1-.12-2.13,2.57,2.57,0,0,1,.44-1.11,2.17,2.17,0,0,1,1-.77c.19-.07.39-.1.58-.15l.56,0a2.93,2.93,0,0,1,1.15.25,5.13,5.13,0,0,1,1.71,1.31A16.36,16.36,0,0,1,309,223.8a49.65,49.65,0,0,1,3.12,7.29A121.54,121.54,0,0,1,316.33,246.28Z" style="fill:#a6a6a6"></path><path d="M310.76,246.28c-2.58-3-5.25-6-8.05-8.8a117.08,117.08,0,0,0-8.72-8.1,60.88,60.88,0,0,0-9.72-6.74,25.67,25.67,0,0,0-5.41-2.22,14.56,14.56,0,0,0-2.84-.49,6.47,6.47,0,0,0-2.71.21c-.16.08-.29.16-.32.26a.45.45,0,0,0,0,.36,3.37,3.37,0,0,0,.62,1.11,15.78,15.78,0,0,0,2,2.06,57.11,57.11,0,0,0,4.67,3.63c3.23,2.3,6.6,4.41,10,6.54s6.77,4.16,10.2,6.17S307.31,244.29,310.76,246.28Zm0,0q-10.65-5.4-20.93-11.52-5.15-3-10.07-6.45a57.63,57.63,0,0,1-4.78-3.66,17.11,17.11,0,0,1-2.17-2.17A4.25,4.25,0,0,1,272,221a1.45,1.45,0,0,1,.11-1.07,1.62,1.62,0,0,1,.79-.69,7.22,7.22,0,0,1,3.19-.28,16.07,16.07,0,0,1,3,.55,27,27,0,0,1,5.59,2.34,55.77,55.77,0,0,1,9.78,7A121.3,121.3,0,0,1,310.76,246.28Z" style="fill:#a6a6a6"></path><path d="M339.44,246.28c5.41-1.39,10.81-2.79,16.18-4.29s10.74-3,16-4.71,10.59-3.48,15.43-6.19a45.61,45.61,0,0,0,6.91-4.56,26.42,26.42,0,0,0,3-2.8,12.47,12.47,0,0,0,1.25-1.59,4.58,4.58,0,0,0,.77-1.68c0-.27,0-.46-.09-.49a1.4,1.4,0,0,0-.7-.15,9.14,9.14,0,0,0-2,.27,38,38,0,0,0-4,1.17c-2.61.91-5.19,2-7.75,3-5.13,2.18-10.17,4.56-15.21,6.95s-10,4.88-15,7.4S344.39,243.71,339.44,246.28Zm0,0Q354,238,369,230.56q7.49-3.75,15.18-7.09c2.56-1.11,5.15-2.18,7.8-3.11a38.91,38.91,0,0,1,4.06-1.23,10.15,10.15,0,0,1,2.18-.29,2.16,2.16,0,0,1,1.29.33,1.46,1.46,0,0,1,.48,1.42,5.6,5.6,0,0,1-.93,2.1,14.93,14.93,0,0,1-1.35,1.69,26.58,26.58,0,0,1-3.12,2.89,46.67,46.67,0,0,1-7.07,4.62A82.13,82.13,0,0,1,371.89,238C361.19,241.23,350.34,243.89,339.44,246.28Z" style="fill:#a6a6a6"></path><path d="M321.12,246.28c-.28-1.1-.66-2.24-1-3.45l-.89-3.48c-.52-2.34-1-4.69-1.35-7.07a35.59,35.59,0,0,1-.44-7.23,13.79,13.79,0,0,1,.67-3.66c.14-.29.27-.59.42-.88a4.88,4.88,0,0,1,.64-.8,2.73,2.73,0,0,1,3.9,0,4.88,4.88,0,0,1,.64.8c.15.29.28.59.42.88a13.77,13.77,0,0,1,.66,3.66,35.59,35.59,0,0,1-.44,7.23c-.33,2.38-.83,4.73-1.35,7.07l-.9,3.48C321.78,244,321.4,245.18,321.12,246.28Zm0,0c.3-1.22.49-2.4.74-3.52l.67-3.51c.42-2.35.83-4.7,1.07-7.07a41.92,41.92,0,0,0,.29-7.07,12.9,12.9,0,0,0-.64-3.37,2.14,2.14,0,0,0-4.24,0,12.43,12.43,0,0,0-.65,3.37,40.9,40.9,0,0,0,.29,7.07C319.18,236.92,320.13,241.59,321.12,246.28Z" style="fill:#a6a6a6"></path><path d="M325.92,246.28a121.54,121.54,0,0,1,4.18-15.19,50.7,50.7,0,0,1,3.11-7.29,16.83,16.83,0,0,1,2.27-3.34,5.13,5.13,0,0,1,1.71-1.31,2.93,2.93,0,0,1,1.15-.25l.56,0c.19.05.38.08.57.15a2.14,2.14,0,0,1,1,.77,2.7,2.7,0,0,1,.44,1.11,6.24,6.24,0,0,1-.12,2.13,19.22,19.22,0,0,1-1.34,3.8,51.88,51.88,0,0,1-3.9,6.9A111,111,0,0,1,325.92,246.28Zm0,0c1.57-2.1,3.15-4.2,4.64-6.35s3-4.31,4.33-6.54a62.39,62.39,0,0,0,3.72-6.86,18,18,0,0,0,1.23-3.62,5.36,5.36,0,0,0,.09-1.77,1.36,1.36,0,0,0-.82-1.12c-.11,0-.25-.06-.37-.1l-.42,0a2,2,0,0,0-.75.17,4.19,4.19,0,0,0-1.4,1.06,16.56,16.56,0,0,0-2.16,3.13,59.74,59.74,0,0,0-3.19,7.11c-.95,2.44-1.8,4.92-2.6,7.41S326.65,243.76,325.92,246.28Z" style="fill:#a6a6a6"></path><path d="M331.49,246.28a121.23,121.23,0,0,1,16.27-17.48,55.77,55.77,0,0,1,9.78-7,27.19,27.19,0,0,1,5.59-2.34,16.32,16.32,0,0,1,3-.55,7.18,7.18,0,0,1,3.18.28,1.62,1.62,0,0,1,.79.69,1.41,1.41,0,0,1,.12,1.07,4.11,4.11,0,0,1-.82,1.49,16.41,16.41,0,0,1-2.16,2.17,59.34,59.34,0,0,1-4.78,3.66q-4.94,3.41-10.08,6.45Q342.14,240.87,331.49,246.28Zm0,0c3.45-2,6.9-4,10.31-6s6.84-4.06,10.21-6.17,6.72-4.24,9.95-6.54a57.26,57.26,0,0,0,4.68-3.63,15.09,15.09,0,0,0,2-2.06,3.19,3.19,0,0,0,.62-1.11c0-.16,0-.29,0-.36s-.17-.18-.32-.26a6.48,6.48,0,0,0-2.71-.21,14.66,14.66,0,0,0-2.85.49,26.11,26.11,0,0,0-5.41,2.22,60.8,60.8,0,0,0-9.71,6.74,117.08,117.08,0,0,0-8.72,8.1Q335.34,241.71,331.49,246.28Z" style="fill:#a6a6a6"></path><rect x="187.11" y="305.87" width="268.03" height="71.83" style="fill:#c7c7c7"></rect><rect x="187.11" y="305.87" width="268.03" height="23.12" style="fill:#a6a6a6"></rect><rect x="173.48" y="303.54" width="295.3" height="12.97" style="fill:#c7c7c7"></rect></g><g id="freepik--Plants--inject-5"><path d="M180.36,378.25H100s.18-12,8.09-15.14a10.77,10.77,0,0,1,12.6,3s3.23-22,18-22,21.78,19,21.78,19,3.3-5.74,11.48-4.67S180.36,378.25,180.36,378.25Z" style="fill:#37474f"></path><path d="M460.25,378.25s-2.46-11.5-7.39-13.27-7.91,3.39-7.91,3.39-1.16-11-8.14-14.28-12.22,3.45-12.22,3.45-5.36-14-14.93-14S395.26,364,395.26,364s-5.64-6.09-11.43-2.65-5.79,16.9-5.79,16.9Z" style="fill:#37474f"></path><path d="M114.36,378.25H40.21s2.44-10.45,7.36-11.19,7.2,4.11,7.2,4.11-.22-14.58,9-17.07,16.88,10.4,16.88,10.4,5.76-7.34,13.6-6.87,9.84,12.6,9.84,12.6S111.2,366,114.36,378.25Z" style="fill:#455a64"></path><path d="M383.35,378.25H337.8s.1-6.78,4.58-8.58a6.11,6.11,0,0,1,7.14,1.72s1.83-12.47,10.17-12.47S372,369.67,372,369.67a6.39,6.39,0,0,1,6.5-2.64C383.17,367.63,383.35,378.25,383.35,378.25Z" style="fill:#455a64"></path></g><g id="freepik--character-2--inject-5"><path d="M246.45,248.23c-1.45,4.2.13,10.93-3.17,10.83-2.94-.1-3.59-4.87-3.59-4.87s-1,5.61-4.15,4.61-2.77-6.37-2.77-6.37-.64,4.7-3.69,3.48-3.59-5.84-3.59-5.84-1.1,1.22-2.87-.62c-2.54-2.62-1.46-10.44.07-14.39s10.06-17.27,11.4-19.29l25.43,9.61s.51,8.28.26,12.51-4.94,17.94-8.42,17,0-10.56.34-13.1-.2-3-1.24-2C249.78,240.44,247.08,246.37,246.45,248.23Z" style="fill:#774442"></path><path d="M239.78,254c-.43-6.71.55-9.71,3.72-15.52.06-.11-.1-.23-.17-.12-3.62,5.41-5.39,9-3.88,15.68C239.53,254.32,239.8,254.28,239.78,254Z" style="fill:#263238"></path><path d="M232.85,252.71c.17-7,1.2-10.27,4.07-16.6.05-.08-.1-.16-.15-.08-3.34,6-5,9.6-4.27,16.62C232.54,253,232.85,253,232.85,252.71Z" style="fill:#263238"></path><path d="M225.55,250c.65-6.76,1.63-10.4,5.2-16.18a.12.12,0,0,0-.2-.14c-4.22,5.54-5.47,10.06-5.2,16.28C225.37,250.38,225.51,250.42,225.55,250Z" style="fill:#263238"></path><path d="M276.63,136.33c-17.14,21.21-40.33,73.2-43.11,80.61-1.89,5,24.46,15.59,25.23,12,1-4.61,18.22-62,22.26-83.5C283.24,133.59,280.18,132,276.63,136.33Z" style="fill:#774442"></path><path d="M275.43,173.3l-20.79-5.74s11.82-23.68,20.41-31.25,8.09,1.72,7,8.65S275.43,173.3,275.43,173.3Z" style="fill:#832121"></path><path d="M275.83,168.49c-2.82-1.05-5.81-1.77-8.72-2.57s-6-1.44-9-2.19c-.09,0-.13.12-.05.14,2.91.87,5.77,1.86,8.71,2.62a87.63,87.63,0,0,0,9,2.08A0,0,0,0,0,275.83,168.49Z" style="fill:#263238"></path><path d="M294.59,401.5v8.32c0,7.74-.06,14.53-.44,18a.13.13,0,0,1,0,.06,10.84,10.84,0,0,1-.56,2.4s0,0-.05.05c-2.29,1.57-64.19,3.69-66.38,3s-.49-6.93,1.84-8.93,25.69-13.41,25.69-13.41l-.12-8.44Z" style="fill:#ebebeb"></path><path d="M227.15,433.41c2.19.65,64.08-1.47,66.39-3.05.88-.58,1.1-9.62,1-20.54,0-.12,0-.23,0-.35l-39.94.92,0,.68S231.35,422.48,229,424.48,225,432.76,227.15,433.41Z" style="fill:#832121"></path><path d="M227.77,431c10.42-.61,52.53-2.1,62.88-1.91.08,0,.09.05,0,.06-10.32.83-52.43,2-62.88,2C227.55,431.15,227.55,431,227.77,431Z" style="fill:#263238"></path><path d="M251.32,411.31c4.08-.91,9.13-.45,12.36,2.37.13.11,0,.28-.16.24a59,59,0,0,0-12.16-2.1A.26.26,0,0,1,251.32,411.31Z" style="fill:#263238"></path><path d="M248.42,413.19c4.08-.9,9.12-.44,12.36,2.37.13.11,0,.29-.16.25a57.66,57.66,0,0,0-12.16-2.1A.26.26,0,0,1,248.42,413.19Z" style="fill:#263238"></path><path d="M245.52,415.08c4.08-.91,9.12-.45,12.36,2.37.12.11,0,.29-.17.25a57.44,57.44,0,0,0-12.16-2.1A.26.26,0,0,1,245.52,415.08Z" style="fill:#263238"></path><polygon points="297.96 219.08 296.42 340.16 295.51 411.53 252.18 410.66 260.65 216.66 261.09 194.45 297.67 194.45 297.96 219.08" style="fill:#37474f"></polygon><path d="M254,403.43c6.77-.06,4.83-.14,11.59-.12,3.31,0,25.07.08,28.15.63a.07.07,0,0,1,0,.14c-3.1.47-24.85,0-28.16-.05-6.76-.15-4.82-.18-11.58-.4A.1.1,0,0,1,254,403.43Z" style="fill:#263238"></path><path d="M292.17,212.79a.09.09,0,0,0-.17,0c-.16,24.34-.62,48.67-1.19,73s-1.36,48.4-2.13,72.59c-.43,13.64-.86,27.28-1.15,40.93,0,.1.15.09.16,0,1.48-24.3,2.57-48.63,3.49-73,.9-24.18,1.49-48.39,1.46-72.6C292.63,240.1,292.53,226.44,292.17,212.79Z" style="fill:#263238"></path><polygon points="297.96 219.08 296.42 340.16 267.38 194.45 297.67 194.45 297.96 219.08" style="fill:#263238"></polygon><path d="M308.17,400.84c.4,4.84.67,8.26.67,8.29.05,7.75.23,14.54.65,18a.13.13,0,0,0,0,.06,9.86,9.86,0,0,0,.59,2.39s0,0,0,.05c2.32,1.54,64.24,2.95,66.41,2.27S377,425,374.6,423s-25.84-13.11-25.84-13.11l-.77-8.55Z" style="fill:#ebebeb"></path><path d="M376.55,431.94c-2.18.68-64.1-.72-66.42-2.27-.89-.58-1.21-9.61-1.29-20.54v-.34l40,.46,0,.68S372.23,421.07,374.6,423,378.73,431.27,376.55,431.94Z" style="fill:#832121"></path><path d="M375.9,429.53c-10.43-.5-52.55-1.5-62.9-1.2-.08,0-.09.06,0,.07,10.33.71,52.45,1.38,62.9,1.3C376.12,429.7,376.12,429.54,375.9,429.53Z" style="fill:#263238"></path><path d="M353.24,409.47c-4.09-.86-9.13-.35-12.33,2.51-.12.11,0,.28.17.24A58,58,0,0,1,353.21,410,.26.26,0,0,0,353.24,409.47Z" style="fill:#263238"></path><path d="M356.17,411.32c-4.09-.86-9.13-.34-12.34,2.51-.12.11,0,.29.17.25a57.48,57.48,0,0,1,12.14-2.24A.26.26,0,0,0,356.17,411.32Z" style="fill:#263238"></path><path d="M359.09,413.17c-4.09-.86-9.13-.34-12.33,2.51-.13.12,0,.29.17.25a58,58,0,0,1,12.13-2.24A.26.26,0,0,0,359.09,413.17Z" style="fill:#263238"></path><path d="M264.8,194.42a.08.08,0,0,0,0,0c.16.76,2.72,12.63,5.37,22.82,1.93,7.45,3.92,14,5.06,14.68s7.57,3.55,9.68,4.42l9.61,91.95,12.89,82.73,43.23-2.26L316,194.42Z" style="fill:#37474f"></path><path d="M307.63,403.15c6.75-.44,4.81-.41,11.57-.78,3.3-.17,25-1.33,28.14-.95.07,0,.07.12,0,.14-3.06.64-24.8,1.42-28.11,1.53-6.76.24-4.82.1-11.59.26A.1.1,0,0,1,307.63,403.15Z" style="fill:#263238"></path><path d="M316.24,230.8c-1.13-.29-2.34-.39-3.49-.57-.94-.15-1.86-.31-2.79-.52a12.2,12.2,0,0,1-4.91-2.06,11.71,11.71,0,0,1-3.18-5c-.46-1.08-.94-2.15-1.42-3.22-.23-.51-.46-1-.7-1.55a18.56,18.56,0,0,1-.88-1.86.07.07,0,0,0-.14.05,12.16,12.16,0,0,1,.4,1.34c.15.52.3,1,.46,1.56.29.92.57,1.85.88,2.77a21.87,21.87,0,0,0,2,4.87c1.71,2.71,4.76,3.81,7.81,4.19.88.11,1.76.17,2.64.22a18.52,18.52,0,0,0,3.33,0C316.37,231.08,316.42,230.84,316.24,230.8Z" style="fill:#263238"></path><path d="M271.89,230.28a82,82,0,0,1,12.95,6,.14.14,0,1,1-.12.26c-4.36-1.87-8.81-3.66-13.06-5.78A.28.28,0,0,1,271.89,230.28Z" style="fill:#263238"></path><path d="M270.58,200.39c0-.15.27-.18.27,0,0,5.18.3,9.74.73,14.58.21,2.25,2,14.67,5.91,13.77.66-.15,1-.8,1.09-1.78a15.6,15.6,0,0,0-.52-3.81c-.43-2.6-.78-5.21-1-7.84a70.72,70.72,0,0,1,.16-14.69.13.13,0,0,1,.25,0,133.58,133.58,0,0,0,1.19,20.29c.48,3.23,2.11,8.09-1.27,8.59s-5.67-7.64-6.09-9.87A74.59,74.59,0,0,1,270.58,200.39Z" style="fill:#263238"></path><path d="M277.39,229.05a23,23,0,0,1,.88,2.58,5.89,5.89,0,0,1,.36,2.11c0,.14-.2.15-.27.06a7.48,7.48,0,0,1-.91-2.06c-.29-.8-.61-1.59-.88-2.39A.44.44,0,0,1,277.39,229.05Z" style="fill:#263238"></path><path d="M340.26,367.84q-2.37-15.52-4.87-31-5-30.94-10.55-61.8-3.15-17.49-6.46-34.94c0-.11-.21-.07-.19,0,3.42,20.77,6.93,41.53,10.34,62.3s6.84,41.37,10.25,62.05c1.92,11.62,3.7,23.26,5.85,34.84,0,.09.16.06.15,0C343.5,388.75,341.85,378.3,340.26,367.84Z" style="fill:#263238"></path><path d="M322,215c-.16.16-65.2-1.89-65.77-2.58-.79-1,13.13-65.57,24.18-79.25,2.76-3.41,12.07-4.34,15.73-.54,10.59,11,12.51,18.86,15,26.18,1.87,5.42,4,14.61,5.88,24C320.15,198.36,322.55,214.42,322,215Z" style="fill:#832121"></path><path d="M273.14,146.76c-.9,2.18-1.77,4.36-2.55,6.6-.12.34-.23.69-.35,1,.05-.3.11-.61.16-.92.17-.93.27-1.85.36-2.79a.07.07,0,0,0-.14,0,15.37,15.37,0,0,0-.6,2.85c-.07.67-.12,1.35-.17,2-.53,1.57-1,3.14-1.53,4.73-1.43,4.63-2.77,9.27-3.92,14-.64,2.67-1,5.4-1.66,8.07,0,.12.16.17.19.05.57-2.35,1.34-4.66,2.05-7s1.32-4.57,2-6.87c1.29-4.62,2.68-9.22,4.07-13.81.8-2.62,1.56-5.25,2.32-7.88C273.36,146.72,273.18,146.64,273.14,146.76Z" style="fill:#263238"></path><path d="M282.51,143.42c2.72.38,8.88-4.19,11.5-8.28.18-.29-.06-3.39-.16-7.18-.06-2.3-.07-4.86.09-7.19L279,123.32a37.62,37.62,0,0,1,.8,9.07,5.53,5.53,0,0,1-.17,1s0,.1,0,.16C279.22,135.3,278.25,142.82,282.51,143.42Z" style="fill:#774442"></path><path d="M293.83,127.3c-3.26,4.22-8.1,8.23-14.37,7.11.07-.39.12-.69.18-.91a1.1,1.1,0,0,0,0-.16,4,4,0,0,0,.16-1,37.23,37.23,0,0,0-.79-9.07l14.9-2.55C293.79,122.88,293.79,125.18,293.83,127.3Z" style="fill:#263238"></path><path d="M274.17,101c-1.83,5.13.19,20.29,3.73,23.82,5.13,5.12,13.89,6,18.33-.24,4.3-6.06,1.31-25.77-2.67-29C287.69,90.8,276.89,93.45,274.17,101Z" style="fill:#774442"></path><path d="M287.05,109.8s-.07.06-.06.1c.21,1,.27,2.2-.59,2.7,0,0,0,.06,0,.05C287.52,112.3,287.41,110.72,287.05,109.8Z" style="fill:#263238"></path><path d="M286,108.9c-1.65.15-1.21,3.45.32,3.3S287.35,108.76,286,108.9Z" style="fill:#263238"></path><path d="M293.06,108.79s.09,0,.09.08c.11,1,.4,2.18,1.37,2.4a0,0,0,0,1,0,0C293.37,111.31,293,109.77,293.06,108.79Z" style="fill:#263238"></path><path d="M293.83,107.6c1.63-.34,2.2,2.93.69,3.25S292.47,107.89,293.83,107.6Z" style="fill:#263238"></path><path d="M284.46,107.56a11.65,11.65,0,0,0,1.22-.62,2.21,2.21,0,0,0,1.12-.87.71.71,0,0,0-.23-.83,1.74,1.74,0,0,0-1.76.06,2.52,2.52,0,0,0-1.32,1.29A.75.75,0,0,0,284.46,107.56Z" style="fill:#263238"></path><path d="M294.81,106.16a12.31,12.31,0,0,1-1.36-.16,2.25,2.25,0,0,1-1.35-.44.69.69,0,0,1-.07-.85,1.76,1.76,0,0,1,1.68-.56,2.6,2.6,0,0,1,1.68.77A.75.75,0,0,1,294.81,106.16Z" style="fill:#263238"></path><path d="M287.37,119.4c.27.21.56.51.94.49a2.74,2.74,0,0,0,1.06-.4s.07,0,.05,0a1.38,1.38,0,0,1-1.22.73,1.09,1.09,0,0,1-.92-.8S287.33,119.37,287.37,119.4Z" style="fill:#263238"></path><path d="M288,116.2a3.5,3.5,0,0,0,2.53,1.24,4.11,4.11,0,0,0,1.26-.11,1.05,1.05,0,0,0,.24-.06,1.66,1.66,0,0,0,.21-.06.26.26,0,0,0,.18-.26h0a.45.45,0,0,0,0-.11h0v-.09c-.08-.79-.32-2-.32-2,.31.11,1.86.57,1.78.16a52.1,52.1,0,0,0-2.75-10.34.09.09,0,0,0-.18,0c.5,3.27,1.57,6.42,2.13,9.7a5.75,5.75,0,0,0-1.71-.28c-.1,0,.5,2.28.51,2.64v0a4.87,4.87,0,0,1-3.75-.64C288,116.05,288,116.13,288,116.2Z" style="fill:#263238"></path><path d="M291.3,117a4.18,4.18,0,0,1-1.48,1.5,1.92,1.92,0,0,1-1.12.22c-.84-.11-1-.86-.9-1.52a4.79,4.79,0,0,1,.24-1A5.43,5.43,0,0,0,291.3,117Z" style="fill:#263238"></path><path d="M289.82,118.5a1.92,1.92,0,0,1-1.12.22c-.84-.11-1-.86-.9-1.52A2,2,0,0,1,289.82,118.5Z" style="fill:#ff9abb"></path><path d="M273,112.93c-.45-1.37-4.66-16.18-4.33-17.83.29-1.5,1.94-1,2-1s0-1.44.83-2a2.24,2.24,0,0,1,1.81,0s.2-1.44,1.08-1.86a1.81,1.81,0,0,1,1.77.3,2.39,2.39,0,0,1,1.36-1.76,1.56,1.56,0,0,1,1.76.59s.32-1.38,1.25-1.68,1.78.67,1.78.67A2.06,2.06,0,0,1,283.9,87a1.8,1.8,0,0,1,1.63,1.16,2.48,2.48,0,0,1,1.69-1.3c1.07-.07,1.5,1.24,1.5,1.24s.38-1.2,1.39-1.17,1.31,1.43,1.31,1.43.51-1.33,1.7-1c1.84.51,2.43,9.18,3,12.93,0,0-.58-1.78-1.35-1.82s-1.3,1.22-2.72,1.6c-2,.53-5.53-1.72-8.33-1s-4.63,3.66-5.44,8C277.37,111.94,274.09,116.19,273,112.93Z" style="fill:#263238"></path><path d="M276.8,113.43s-3.27-5-5.51-3.81.12,8.27,2.68,9.31a2.63,2.63,0,0,0,3.57-1.32Z" style="fill:#774442"></path><path d="M272,111.64s0,.06,0,.07c1.8.79,2.71,2.5,3.33,4.27a1.46,1.46,0,0,0-2.17-.46c-.05,0,0,.11,0,.1a1.62,1.62,0,0,1,1.77.61,8.08,8.08,0,0,1,.81,1.47c.08.16.38.09.32-.1v0C276.21,115.24,274.5,112,272,111.64Z" style="fill:#263238"></path><path d="M307.19,140.64c20.68,18.14,39.95,58,31.23,62.75-8,4.3-34.54,3.43-45.58,1.84-3.24-.47.9-25.63,4.37-25.14,4.19.6,14.82,1.15,15.24,1.08.9-.14-11.3-26.76-15.34-37C291.48,129.83,299.43,133.82,307.19,140.64Z" style="fill:#774442"></path><path d="M264,177.43a3.92,3.92,0,0,0,.73,4.4,5.79,5.79,0,0,0-2.5,3c-.7,2.28,2.57,4.37,2.57,4.37a7.17,7.17,0,0,0-2.13,3.63c-.45,2.25,2.55,4.83,2.55,4.83a6.28,6.28,0,0,0,.13,4.37c1.66,3.66,7.75,4.47,11.61,5s15.34-1.49,17.57-1.66l3.77-24.76s-16.61-7.42-21.25-7.43C273.15,173.23,265.41,174.73,264,177.43Z" style="fill:#774442"></path><path d="M265,181.45c4.15-1,8.37-.69,12.6-.64a.07.07,0,1,1,0,.14c-4.2-.1-8.37.64-12.57.71A.11.11,0,0,1,265,181.45Z" style="fill:#263238"></path><path d="M264.93,188.92a11.34,11.34,0,0,1,2.91,0c1,.07,2.06.15,3.08.25q3.09.28,6.16.74c.09,0,.09.16,0,.15-2.05-.2-4.1-.36-6.15-.46-1-.06-2.06-.1-3.09-.14a12.91,12.91,0,0,1-2.91-.24A.15.15,0,0,1,264.93,188.92Z" style="fill:#263238"></path><path d="M265.31,197.69a7.74,7.74,0,0,1,2.62.13l2.8.31c1.87.19,3.75.39,5.62.52.1,0,.09.16,0,.15-1.91-.12-3.82-.22-5.72-.36l-2.81-.23a7.42,7.42,0,0,1-2.53-.42S265.27,197.7,265.31,197.69Z" style="fill:#263238"></path><path d="M307.71,171.58l19.37-9.47s-16-21.11-25.8-27-7.64,3.19-5.26,9.79S307.71,171.58,307.71,171.58Z" style="fill:#832121"></path><path d="M324,160.29c-2.83,1-5.56,2.44-8.28,3.73s-5.49,2.84-8.26,4.22c-.08,0,0,.18.07.15,2.77-1.24,5.58-2.36,8.3-3.71a85.33,85.33,0,0,0,8.2-4.32S324.05,160.27,324,160.29Z" style="fill:#263238"></path><path d="M308.88,171c-.42.14-.62.23-1,.33-1.57-3.78-3.38-7.45-5.13-11.14q-2.75-5.78-5.52-11.53c0-.07-.13,0-.11,0,.69,1.73,1.39,3.44,2.1,5.16-.41-.6-.81-1.21-1.24-1.8a.05.05,0,0,0-.09.06c.51.79,1.05,1.57,1.58,2.35.85,2,1.71,4,2.6,6,1.72,3.86,3.43,7.72,5.49,11.41.11.18,1-.54,1.41-.72C309.09,171.1,309,170.93,308.88,171Z" style="fill:#263238"></path></g><g id="freepik--character-1--inject-5"><path d="M161.47,137.35c.8,12.15,1.42,24.66.35,36.81-.84,9.46-4.73,17.28-14.52,19.71-9.09,2.24-22.07,2.21-29.85-3.75-3.62-2.78-4.91-6.74-4.71-11.19.26-6.2,4.81-40.15,6.17-50.75.81-6.44,1.61-13,3.56-19.23,4.1-13.1,10.56-13.06,11.46-13.33.77-.5,5.7-2.77,12.78-.59a13.75,13.75,0,0,1,8.46,7.37C160.36,112.83,160.71,126,161.47,137.35Z" style="fill:#263238"></path><path d="M131.93,97.45c-7.73,3.71-9.49,12.22-11.29,19.84-2.51,10.61-4.84,21.27-6.65,32-.87,5.17-1.62,10.36-2.22,15.57-.58,5-1.49,10.31-1.1,15.34.64,8.32,8.29,12,15.68,13.13a.28.28,0,0,0,.1-.56c-4.21-.79-8.51-1.91-11.67-5-4-3.95-3.64-9.17-3.22-14.37.71-8.85,1.93-17.65,3.46-26.39s3.38-17.45,5.36-26.12c1.89-8.24,3.21-19.08,11.6-23.35C132.06,97.54,132,97.41,131.93,97.45Z" style="fill:#263238"></path><path d="M158.84,111.25c-1.54-6.34-4.91-12.51-11.62-14.28,0,0,0,0,0,0,8.68,2.66,10.89,12.1,12.13,20q1.95,12.45,3,25c.66,8,1.16,16.17,1.08,24.25-.07,8.72-1.57,16.91-6.64,24.15-.11.15.1.33.22.18,5-5.86,6.61-13.89,6.93-21.39.44-9.88-.31-19.92-1.19-29.76C161.88,130.07,161.06,120.38,158.84,111.25Z" style="fill:#263238"></path><path d="M203.31,436.49c-2.14.71-63.36.53-65.69-.95-.89-.55-1.38-9.47-1.67-20.26-.07-2.34-.11-4.73-.15-7.19-.05-2.89-.09-5.82-.1-8.67-.08-12.79.1-24.05.1-24.05h39.85l0,24.05v8.67l-.2,7.19s23.4,10.55,25.78,12.45S205.45,435.79,203.31,436.49Z" style="fill:#f7a9a0"></path><path d="M203.31,436.49c-2.14.71-63.36.53-65.69-.95-.89-.55-1.38-9.47-1.67-20.26-.07-2.34-.11-4.73-.15-7.19-.05-2.89-.09-5.82-.1-8.67h39.93v8.67l-.2,7.19s23.4,10.55,25.78,12.45S205.45,435.79,203.31,436.49Z" style="fill:#fff"></path><path d="M203.5,436.58c-1.4.46-27.48.55-46.46.16-4.39-.09-8.41-.21-11.65-.35-4.47-.21-7.47-.45-8-.76-1.07-.7-1.59-13.79-1.83-27.61h40.05l-.21,7.23s23.54,10.61,25.94,12.52S205.64,435.86,203.5,436.58Z" style="fill:#832121"></path><path d="M202.62,434.12c-10.32-.29-52-.45-62.19.05-.08,0-.08.06,0,.06,10.23.51,51.87.34,62.19.06C202.84,434.28,202.84,434.12,202.62,434.12Z" style="fill:#263238"></path><path d="M176.91,413c-4.06-.77-9-.16-12.14,2.72-.12.11,0,.28.17.24a57.25,57.25,0,0,1,11.95-2.45A.26.26,0,0,0,176.91,413Z" style="fill:#263238"></path><path d="M179.83,414.73c-4.05-.77-9-.16-12.13,2.73-.12.11,0,.28.17.24a57.12,57.12,0,0,1,11.95-2.45A.26.26,0,0,0,179.83,414.73Z" style="fill:#263238"></path><path d="M182.76,416.51c-4.06-.77-9-.16-12.14,2.72-.12.11,0,.28.17.24a57.25,57.25,0,0,1,12-2.45A.26.26,0,0,0,182.76,416.51Z" style="fill:#263238"></path><path d="M185.69,418.28c-4.06-.77-9-.16-12.14,2.73-.12.11,0,.28.17.24a57.12,57.12,0,0,1,11.95-2.45A.26.26,0,0,0,185.69,418.28Z" style="fill:#263238"></path><path d="M184.44,403.59c-1.59-2.2-4.57-1.22-6.27.2a21.71,21.71,0,0,0-6.28,9.28c0,.08,0,.13.1.15a.5.5,0,0,0,.63.51c3.36-1.24,7.1-2.14,10-4.36C184.28,408.07,185.94,405.67,184.44,403.59Zm-7.11,7.23c-1.64.64-3.29,1.21-4.91,1.91a64.42,64.42,0,0,1,3.79-5.34,23.64,23.64,0,0,1,2.16-2.32c1.21-1.09,6-3.42,5.27,1C183.24,408.56,179.28,410.05,177.33,410.82Z" style="fill:#263238"></path><path d="M161.57,412c3.35,1.44,7.19,1.38,10.75,1.73a.5.5,0,0,0,.49-.65.12.12,0,0,0,.06-.17,21.71,21.71,0,0,0-8.4-7.42c-2-1-5.13-1.16-6.12,1.37S159.62,411.14,161.57,412Zm-1.82-2.9c-1.82-4.13,3.4-3.07,4.85-2.32a24.17,24.17,0,0,1,2.67,1.71c1.78,1.28,3.35,2.78,5,4.23-1.74-.28-3.49-.41-5.23-.63C165,411.81,160.75,411.36,159.75,409.08Z" style="fill:#263238"></path><path d="M122.51,205.53s10.77,106.54,11,107.89c0,.18,2.23,81.09,2.23,81.09h44s-2.87-67.73-4.52-83.53c-2.1-20.15-15.32-105.45-15.32-105.45Z" style="fill:#455a64"></path><path d="M138.77,317.17q-2-34.62-6.11-69.08c-1.55-13-3.4-25.84-5.25-38.75,0-.11-.19-.11-.18,0,3.41,23,5.82,46.11,7.89,69.22s3.52,46.23,4.47,69.4c.53,13.12.94,26.25,1.36,39.38a.25.25,0,0,0,.49,0C140.82,363.94,140.14,340.54,138.77,317.17Z" style="fill:#263238"></path><path d="M176.93,387.43c-1.15-.15-2.4-.1-3.57-.14-1.32-.05-2.64-.06-4-.11-2.54-.1-5.09-.16-7.63-.2-5.13-.09-10.28-.06-15.4.1l-4.24.15c-1.5.06-3,.2-4.51.19-.12,0-.11.14,0,.13,2.59,0,5.2.23,7.78.32s5.09.14,7.64.18q7.69.1,15.4-.17c1.41-.05,2.82-.07,4.23-.11l2.26-.1c.67,0,1.34,0,2-.06A.09.09,0,0,0,176.93,387.43Z" style="fill:#263238"></path><path d="M154.46,205.53,134.25,339.07c-.38-13.86-.69-25-.72-25.63v0c-.25-1.35-11-107.89-11-107.89Z" style="fill:#263238"></path><path d="M143.66,440.85c-2.19.55-63.24-4-65.46-5.63-.84-.62-.7-9.55-.22-20.33.1-2.33.11-4.75.36-7.18.3-3,.65-6.11,1-9,1.55-12.77,3.36-23.44,3.36-23.44L121.34,378,119,401.07l-1,9.48-.71,7.14S140,429.89,142.18,432,145.84,440.29,143.66,440.85Z" style="fill:#f7a9a0"></path><path d="M143.66,440.85c-2.19.55-63.24-4-65.46-5.63-.84-.62-.7-9.55-.22-20.33.1-2.33.11-4.75.36-7.18.3-3,.65-6.11,1-9,11.91.79,29,1.8,39.66,2.41l-1,9.48-.71,7.14S140,429.89,142.18,432,145.84,440.29,143.66,440.85Z" style="fill:#fff"></path><path d="M143.84,441c-2.2.55-63.59-4-65.82-5.66-1-.76-.61-13.86.13-27.66l39.95,2.85-.72,7.19s22.72,12.26,25,14.33S146,440.39,143.84,441Z" style="fill:#832121"></path><path d="M143.14,438.42c-10.27-1-51.8-4.15-62-4.37-.08,0-.09.05,0,.06,10.16,1.23,51.72,4,62,4.48C143.35,438.6,143.36,438.45,143.14,438.42Z" style="fill:#263238"></path><path d="M119,415.49c-4-1.06-9-.8-12.3,1.85-.13.1,0,.28.15.25A57.25,57.25,0,0,1,119,416,.26.26,0,0,0,119,415.49Z" style="fill:#263238"></path><path d="M121.79,417.47c-4-1.06-9-.81-12.3,1.85-.13.1,0,.28.16.25A57.16,57.16,0,0,1,121.74,418,.26.26,0,0,0,121.79,417.47Z" style="fill:#263238"></path><path d="M124.59,419.45c-4-1.06-9-.81-12.31,1.85-.12.1,0,.28.16.25A57.25,57.25,0,0,1,124.53,420,.26.26,0,0,0,124.59,419.45Z" style="fill:#263238"></path><path d="M127.38,421.42c-4-1.05-9-.8-12.3,1.86-.13.1,0,.28.15.25a57.92,57.92,0,0,1,12.09-1.6A.26.26,0,0,0,127.38,421.42Z" style="fill:#263238"></path><path d="M127.18,406.68c-1.43-2.31-4.47-1.55-6.27-.25a21.71,21.71,0,0,0-6.92,8.81.12.12,0,0,0,.08.16c0,.3.24.65.6.55,3.44-1,7.23-1.62,10.26-3.64C126.7,411.14,128.53,408.86,127.18,406.68Zm-7.61,6.7c-1.67.53-3.37,1-5,1.56,1.36-1.71,2.63-3.48,4.16-5.06a22.46,22.46,0,0,1,2.32-2.15c1.29-1,6.23-3,5.19,1.4C125.63,411.55,121.57,412.75,119.57,413.38Z" style="fill:#263238"></path><path d="M103.77,413.42c3.24,1.67,7.08,1.88,10.6,2.49a.51.51,0,0,0,.54-.61c.06,0,.11-.09.06-.16a21.62,21.62,0,0,0-7.85-8c-1.92-1.09-5-1.52-6.19.94S101.89,412.45,103.77,413.42Zm-1.61-3c-1.52-4.25,3.61-2.83,5-2a23.65,23.65,0,0,1,2.54,1.9,65.23,65.23,0,0,1,4.69,4.57c-1.71-.41-3.45-.66-5.17-1C107.16,413.49,103,412.74,102.16,410.4Z" style="fill:#263238"></path><path d="M160.41,205s-2.9,12-8.74,19.91c-1.75,2.37-7.32,4.34-9.79,6.14,0,0-4.14,75.4-6.18,85.62-1.06,5.27-13.17,81.18-13.17,81.18L77.4,394.51s17.52-75,18.5-80.69,3.45-77.83,3.23-79.48c-2.64-19.69,6.75-31.92,6.75-31.92Z" style="fill:#455a64"></path><path d="M124.29,206.73a14.73,14.73,0,0,1-5.38,7.72,18.19,18.19,0,0,1-9.76,3.35c-.6,0-.64.94,0,.94,7.16,0,14.4-4.54,15.45-12C124.61,206.6,124.33,206.57,124.29,206.73Z" style="fill:#263238"></path><path d="M153.11,223.88a40.33,40.33,0,0,0-7.4,3.92c-2.46,1.53-4.73,3.31-7.11,4.95-.09.07,0,.22.09.16,2.49-1.44,5.08-2.68,7.55-4.16a47.51,47.51,0,0,0,7-4.68C153.3,224,153.22,223.84,153.11,223.88Z" style="fill:#263238"></path><path d="M154.12,208.94c-.38,1.64-.86,3.26-1.29,4.89s-.73,3.09-1.2,4.6a7.92,7.92,0,0,1-2.35,3.79c-.63.54-1.32,1-2,1.49l-1.12.78c.06-.22.11-.44.16-.66.13-.62.27-1.25.4-1.87.3-1.38.59-2.77.87-4.16.54-2.73,1.05-5.48,1.75-8.18a.09.09,0,0,0-.17-.05c-.81,2.67-1.68,5.3-2.4,8-.36,1.32-1.7,7.85-1.77,8.31s-.13,1-.17,1.44a6.15,6.15,0,0,0-.07,1.48.13.13,0,0,0,.23,0h0a5.9,5.9,0,0,0,.49-1.41c.14-.47.27-.94.37-1.41,0-.17.07-.35.11-.52.66-.37,1.29-.86,1.92-1.27s1.36-.88,2-1.37a7.43,7.43,0,0,0,2.53-3.58,26.72,26.72,0,0,0,1-4.7c.29-1.86.53-3.73.88-5.58C154.31,208.88,154.15,208.83,154.12,208.94Z" style="fill:#263238"></path><path d="M121.47,389.7c-1.13-.25-2.38-.31-3.54-.45-1.31-.16-2.63-.29-3.94-.45-2.53-.32-5.06-.6-7.59-.86-5.1-.53-10.23-.94-15.35-1.22l-4.23-.22c-1.5-.07-3-.06-4.52-.2-.11,0-.12.12,0,.13,2.57.22,5.16.67,7.72,1s5.06.58,7.59.83c5.11.51,10.24.91,15.36,1.17,1.41.07,2.82.17,4.23.25l2.25.1c.68,0,1.34.13,2,.1A.09.09,0,1,0,121.47,389.7Z" style="fill:#263238"></path><path d="M107.7,205.05a40.43,40.43,0,0,0-4.74,15c-.56,5.74.91,11.33,1.19,17,.29,5.87-.11,11.77-.38,17.64q-.4,9.08-.78,18.15l-.78,18c-.26,6-.39,12-.87,17.94a122.85,122.85,0,0,1-3.18,17.33l-4,17.74c-2.68,11.77-5.43,23.54-7.81,35.37-.29,1.46-.6,2.92-.9,4.38a.08.08,0,0,0,.16,0c3-11.63,5.75-23.33,8.45-35q2-8.79,4.06-17.56c1.31-5.69,2.84-11.39,3.7-17.17A168,168,0,0,0,103,296.53l.78-18q.39-9.07.79-18.15c.26-5.92.61-11.85.66-17.78a78.45,78.45,0,0,0-.34-8.67c-.29-2.88-.86-5.72-1.07-8.6a37.94,37.94,0,0,1,2.63-16.15,42.7,42.7,0,0,1,1.72-3.92A.25.25,0,0,0,107.7,205.05Z" style="fill:#263238"></path><path d="M140.52,145.72c6.69,9.33,42.44,27.34,53,26.72,15.75-.92,36.07-10.17,43.18-14.17,3.09-1.75-5.83-24.8-9.38-23.45-7.6,2.9-30.62,12.46-33.45,12.71s-25.64-3.65-37.58-7.14C140.31,135.7,137.13,141,140.52,145.72Z" style="fill:#f7a9a0"></path><path d="M230.46,133.46c4,0,8.51-.37,12.41,1.07s5.36,7.74,4.85,9.23-5.21,10.22-9.14,8.86.91-7.65,1-8.51.35-2-.42-2.14-15.86,1.47-15.86,1.47Z" style="fill:#f7a9a0"></path><path d="M230.52,134.09c.22.07,12.18-.43,16.08,1s5.36,7.75,4.84,9.23-5.2,10.23-9.13,8.87.91-7.65,1.05-8.52.35-2-.42-2.14S227.08,144,227.08,144Z" style="fill:#f7a9a0"></path><path d="M241.15,152.24a4.93,4.93,0,0,1,.15-2.55,8.54,8.54,0,0,1,1-2.46,14,14,0,0,0,1.22-2,4.59,4.59,0,0,0,.17-2.27c-.11-.65-.75-.66-1.31-.66a20.6,20.6,0,0,0-2.47.22l-2.63.37a20.75,20.75,0,0,0-2.71.47.06.06,0,0,0,0,.12,19.66,19.66,0,0,0,2.3-.21l2.6-.25c.81-.06,1.62-.18,2.43-.23a2.48,2.48,0,0,1,1.15,0c.27.17.17,1,.15,1.22a3.9,3.9,0,0,1-.87,2.07,12.19,12.19,0,0,0-1.16,2,6.2,6.2,0,0,0-.54,2.11,8.65,8.65,0,0,0,.35,2C241,152.36,241.18,152.33,241.15,152.24Z" style="fill:#263238"></path><path d="M214.49,140.07s14.32-6.14,17.27-7.32c5.91-2.38,27.76-3.56,30.52-2.91s1.83,6.44-13.12,7.61c-7.89.62-10.47,4.12-11.09,6.34s.05,7,3.74,8.15,7.9-3.34,11.47-2.77-.79,6-4.39,8.69a23.72,23.72,0,0,1-12.5,4.27c-3.57.08-14.81.91-14.81.91Z" style="fill:#f7a9a0"></path><path d="M247.23,151c-1.74.58-3.78,1.42-5.62.86s-2.69-2.21-3-4a7.31,7.31,0,0,1,.8-5.38,8.9,8.9,0,0,1,3.92-3.23,21.77,21.77,0,0,1,6.1-1.58c.09,0,.06-.15,0-.15-1.94.17-7.91.5-10.56,4.76a7.51,7.51,0,0,0-.77,5.5c.31,1.73,1,3.55,2.72,4.3,2.1.93,4.57-.18,6.57-1C247.41,151,247.32,150.92,247.23,151Z" style="fill:#263238"></path><path d="M228.77,164c-.07-.63-7.9-28.6-7.9-28.6s-23.29,10.52-26.65,11.22S159,140.7,148.29,138c-11.42-2.85-15.36,5.54-.08,15.49s34.7,19.29,43.68,19.8C200.59,173.83,228.77,164,228.77,164Z" style="fill:#832121"></path><path d="M224.12,163.36c-4-10.68-6.63-22.51-7.23-24.54,0-.1.13-.14.16,0,.48,2,4.93,15.23,7.24,24.55C224.32,163.43,224.16,163.46,224.12,163.36Z" style="fill:#263238"></path><path d="M162,184.17l1.58,31s-50-3.94-62.25-6c0,0,15.46-56.28,30.13-69.49,7.33-6.6,15.1-5.33,19.61.19,1.14,1.4,14.33,22.69,15.2,30.44C167,177.2,162,184.17,162,184.17Z" style="fill:#832121"></path><path d="M148.45,137.49h-14a14.5,14.5,0,0,1,1.72-.93H147A11.67,11.67,0,0,1,148.45,137.49Zm2.59,2.44c-.19-.23-.38-.45-.59-.67H132c-.19.15-.37.31-.56.48l-.47.44h20.27Zm1.34,2H129.29c-.25.29-.5.6-.74.92H153C152.76,142.54,152.56,142.23,152.38,142Zm1.67,2.69H127.21c-.22.3-.44.61-.65.93h28.05Zm1.61,2.69H125.41c-.2.3-.39.61-.58.93H156.2Zm1.55,2.69H123.79c-.18.3-.35.61-.53.93h34.47Zm1.5,2.69h-36.4l-.5.93h37.4C159.05,153.33,158.88,153,158.71,152.71Zm1.44,2.69H120.92l-.47.93h40.19C160.48,156,160.32,155.71,160.15,155.4Zm1.39,2.7H119.61c-.15.3-.3.61-.44.92H162Zm1.31,2.69h-44.5c-.13.31-.27.61-.41.92h45.34C163.14,161.41,163,161.1,162.85,160.79Zm1.21,2.69H117.17c-.14.31-.28.62-.41.93h47.69Q164.27,164,164.06,163.48Zm1.06,2.69H116l-.38.93h49.81C165.35,166.8,165.24,166.49,165.12,166.17Zm.84,2.69H114.91l-.38.93h51.62C166.11,169.5,166,169.19,166,168.86Zm-52.12,2.69c-.13.31-.25.62-.37.93H166.3c0-.31,0-.62,0-.93Zm-1,2.69-.36.93H166c.06-.31.12-.62.17-.93Zm-1,2.7c-.12.31-.23.61-.34.92h53.74c.11-.3.21-.61.3-.92Zm-1,2.69-.33.92h53.59c.15-.29.29-.6.43-.92Zm-1,2.69-.33.93h53.07c.17-.26.36-.58.56-.93ZM162,185H108.89l-.32.93h53.49Zm.14,2.69H108c-.1.31-.21.62-.31.93H162.2Zm.14,2.69H107.07c-.1.31-.2.63-.3.93h55.56Zm.13,2.69H106.2c-.11.31-.21.62-.31.93h56.58Zm.14,2.7H105.33c-.1.31-.2.62-.29.92h57.57Zm.14,2.69H104.48c-.09.31-.19.62-.28.92h58.54Zm.14,2.69H103.66c-.1.32-.19.63-.28.93h59.5Zm.13,2.69H102.85c-.09.32-.19.63-.27.93H163Zm.14,2.69H102.06l-.27.93h61.37Zm.14,2.69H101.3c1.69.28,4.1.59,7,.93h55Zm.13,2.69h-38c3.37.32,6.82.63,10.2.93h27.82Zm.14,2.7h-7.2l7.23.58Z" style="fill:#030402;opacity:0.1"></path><path d="M165,165.6c-.63-1.79-1.36-3.54-2.13-5.27q-.65-2.55-1.22-5.12s-.08,0-.07,0a29.31,29.31,0,0,0,.69,3.76,67.24,67.24,0,0,0-3.48-6.55c-.05-.09-.18,0-.13.08A84.41,84.41,0,0,1,164,164.68a21.38,21.38,0,0,1,1.38,6.45,22.8,22.8,0,0,1-.86,6.36,35.67,35.67,0,0,1-1.13,3.5c-.44,1.2-.86,2.45-1.38,3.62,0,.09.09.16.13.07.49-1,1.07-2,1.55-3.08s.86-1.95,1.24-2.94a19.66,19.66,0,0,0,1.36-6.42A18.89,18.89,0,0,0,165,165.6Z" style="fill:#263238"></path><path d="M90.61,237.56A17.19,17.19,0,0,1,91.2,234c.28-1.17.6-2.34.93-3.49.67-2.32,1.41-4.62,2.17-6.9,1.51-4.58,3.13-9.12,4.79-13.65q5.05-13.54,10.72-26.86T122,156.82c2.2-4.3,4.49-8.56,7.07-12.69a55.3,55.3,0,0,1,4.23-6,13.37,13.37,0,0,1,1.33-1.42,9.2,9.2,0,0,1,1.66-1.17,10,10,0,0,1,3.82-1.13,17.81,17.81,0,0,1,7.5,1.16l.88.33a5.32,5.32,0,0,1,1,.51,5.15,5.15,0,0,1,1.46,1.69,11.26,11.26,0,0,1,1.14,3.77,38.36,38.36,0,0,1,.17,7.41c-.15,2.43-.43,4.85-.76,7.25-.68,4.81-1.6,9.55-2.62,14.28s-2.15,9.41-3.39,14.07c-2.46,9.33-5.16,18.59-8,27.8s-5.9,18.35-9.17,27.41c2.83-9.21,5.62-18.42,8.22-27.7s5.18-18.54,7.45-27.89,4.41-18.73,5.7-28.22c.32-2.37.57-4.74.7-7.11a35.5,35.5,0,0,0-.19-7,9.35,9.35,0,0,0-.94-3.11,3.23,3.23,0,0,0-.88-1,7.52,7.52,0,0,0-1.42-.59,16.13,16.13,0,0,0-6.66-1,8,8,0,0,0-3.07.88,6.85,6.85,0,0,0-1.3.9,11.15,11.15,0,0,0-1.13,1.21,53.64,53.64,0,0,0-4.12,5.77c-2.55,4-4.85,8.25-7.06,12.51-4.42,8.52-8.41,17.28-12.36,26.05s-7.66,17.66-11.22,26.6c-1.8,4.47-3.55,8.95-5.21,13.47-.82,2.26-1.62,4.53-2.37,6.81-.38,1.15-.75,2.29-1.08,3.45A17.76,17.76,0,0,0,90.61,237.56Z" style="fill:#a6a6a6"></path><path d="M137,138.73c.35,1,5.8,6.71,10.24,6,1.45-.25.43-8.21.43-8.21l.06-.6.82-8.46-10.44-5-1.5-.65s-.07,2.33-.13,5.23c0,.13,0,.27,0,.41s0,.32,0,.47l0,1.32c0,.34,0,.66,0,1s0,.69,0,1A53.86,53.86,0,0,0,137,138.73Z" style="fill:#f7a9a0"></path><path d="M136.45,127a17,17,0,0,0,11.25,8.88l.82-8.46-10.44-5-1.5-.65S136.51,124.09,136.45,127Z" style="fill:#263238"></path><path d="M159.35,115c1.1,14.88-7.68,17.22-10.89,17.45-2.91.21-12.86.57-15.49-14.12s3.94-19.9,10.58-20.73S158.26,100.13,159.35,115Z" style="fill:#f7a9a0"></path><path d="M156.85,111.05a8.89,8.89,0,0,1-1-.13,1.64,1.64,0,0,1-1-.34.53.53,0,0,1,0-.65,1.32,1.32,0,0,1,1.27-.4,1.94,1.94,0,0,1,1.26.59A.56.56,0,0,1,156.85,111.05Z" style="fill:#263238"></path><path d="M147.09,111.84c.34-.07.65-.19,1-.29a1.61,1.61,0,0,0,.95-.48.54.54,0,0,0-.05-.65,1.33,1.33,0,0,0-1.32-.21,1.92,1.92,0,0,0-1.15.77A.56.56,0,0,0,147.09,111.84Z" style="fill:#263238"></path><path d="M149.35,115.45s-.08,0-.07.09c.13,1,.11,2.19-.77,2.61,0,0,0,.07,0,.06C149.62,117.94,149.63,116.38,149.35,115.45Z" style="fill:#263238"></path><path d="M148.34,114.48c-1.64,0-1.44,3.31.07,3.27S149.72,114.45,148.34,114.48Z" style="fill:#263238"></path><path d="M147.71,114.69c-.27.2-.54.54-.88.6s-.72-.26-1-.58c0,0-.05,0-.05,0,0,.63.31,1.26,1,1.31s1-.53,1.15-1.17C147.93,114.77,147.82,114.61,147.71,114.69Z" style="fill:#263238"></path><path d="M155.17,114.91s.08,0,.08.08c0,1,.21,2.18,1.15,2.47a0,0,0,0,1,0,.06C155.27,117.42,155,115.87,155.17,114.91Z" style="fill:#263238"></path><path d="M156,113.8c1.63-.2,1.92,3.06.41,3.25S154.66,114,156,113.8Z" style="fill:#263238"></path><path d="M156.72,114c.27.15.56.44.87.43s.59-.39.79-.75c0,0,.05,0,.05,0,.07.62-.07,1.29-.66,1.46s-1-.34-1.19-1C156.54,114.08,156.61,113.9,156.72,114Z" style="fill:#263238"></path><path d="M149.74,123.52c.24.24.49.56.86.59a2.82,2.82,0,0,0,1.09-.27,0,0,0,0,1,0,0,1.39,1.39,0,0,1-1.28.57,1.09,1.09,0,0,1-.81-.89C149.62,123.51,149.7,123.49,149.74,123.52Z" style="fill:#263238"></path><path d="M153.71,119.56s.32,1.5.37,2.21c0,.07-.17.12-.41.15,0,0,0,0,0,0a3.4,3.4,0,0,1-3.38-1c0-.06,0-.14.1-.1a5.15,5.15,0,0,0,3.16.67c0-.2-.63-2.55-.51-2.57a6,6,0,0,1,1.64.26c-.56-3.15-1.63-6.17-2.15-9.3a.1.1,0,0,1,.18-.06,51.23,51.23,0,0,1,2.75,9.91C155.52,120.1,154,119.66,153.71,119.56Z" style="fill:#263238"></path><path d="M153.63,121.43a4.17,4.17,0,0,1-1.41,1.56,1.79,1.79,0,0,1-1.1.27c-.85-.06-1-.8-1-1.46a4.26,4.26,0,0,1,.18-1A5.36,5.36,0,0,0,153.63,121.43Z" style="fill:#263238"></path><path d="M152.22,123a1.79,1.79,0,0,1-1.1.27c-.85-.06-1-.8-1-1.46A1.92,1.92,0,0,1,152.22,123Z" style="fill:#ff9abb"></path><path d="M134,119c3.73-.32,4.25-11.84,4.29-13.25,0,.89.12,5.62.49,5.79a3.61,3.61,0,0,0,1.16-.28h0a12.25,12.25,0,0,1,.05-1.7c0-.26.13.56.32,1.58L141,111a14.33,14.33,0,0,1,.18-3.61c.09-.45.31,1.55.82,3.29a44.79,44.79,0,0,1,9.68-2.21c.93-.08,1.74-.11,2.45-.11-.06-1.39-.3-2.87-.18-2.55a13.81,13.81,0,0,1,.71,2.56l1.06,0c0-2-1.09-5.07-.75-4.6a13.75,13.75,0,0,1,2.14,4.75c1.36.2,1.74.44,1.76.09a16.49,16.49,0,0,0-5.5-9.93c-4.88-4.16-14.23-4.8-19.14,2.22,0,0-4.18,3-4.64,7.61S131.84,119.22,134,119Z" style="fill:#263238"></path><path d="M142.88,100.59c-.15,1.57-2.88,2.6-6.08,2.28s-5.68-1.86-5.52-3.44,2.88-2.6,6.08-2.28S143,99,142.88,100.59Z" style="fill:#455a64"></path><path d="M141.64,100.13c-.12,1.2-2.19,2-4.63,1.74s-4.31-1.41-4.19-2.61,2.19-2,4.62-1.74S141.76,98.93,141.64,100.13Z" style="fill:#263238"></path><path d="M141.73,98.92l-.87-.49c1.23-2.21,3.94-2.09,5.2-1.71l-.29,1C145.65,97.64,142.88,96.85,141.73,98.92Z" style="fill:#455a64"></path><path d="M129.52,119.83c0-.16-.29-4-.3-4.75s4.89-13.49,4.94-13.56l.4.29.46.21c-.31.7-4.7,12.2-4.8,13.07,0,.7.3,4.63.3,4.67Z" style="fill:#455a64"></path><path d="M155.94,97.25c-.16,1.58-2.88,2.6-6.09,2.28s-5.68-1.86-5.52-3.44,2.88-2.6,6.09-2.28S156.1,95.67,155.94,97.25Z" style="fill:#455a64"></path><path d="M154.66,96.88c-.12,1.2-2.19,2-4.63,1.74s-4.31-1.41-4.19-2.61,2.19-2,4.63-1.74S154.78,95.68,154.66,96.88Z" style="fill:#263238"></path><path d="M135.42,119.3s-3.19-4.7-5.32-3.56.23,7.91,2.7,8.87a2.53,2.53,0,0,0,3.4-1.32Z" style="fill:#f7a9a0"></path><path d="M130.82,117.66s0,0,0,.07a6.38,6.38,0,0,1,3.24,4,1.39,1.39,0,0,0-2.07-.41s0,.11,0,.1a1.53,1.53,0,0,1,1.7.56,7.37,7.37,0,0,1,.8,1.39c.08.16.36.08.31-.1l0,0C134.88,121,133.2,117.92,130.82,117.66Z" style="fill:#263238"></path><rect x="90.05" y="235.02" width="35.88" height="21.8" transform="translate(28.33 -10.58) rotate(6.45)" style="fill:#263238"></rect><rect x="95.42" y="232.94" width="6.32" height="0.94" transform="translate(26.86 -9.6) rotate(6.45)" style="fill:#263238"></rect><rect x="96.69" y="232.03" width="3.99" height="0.94" transform="translate(26.76 -9.62) rotate(6.45)" style="fill:#263238"></rect><polygon points="120.2 236.33 110.72 235.26 112.04 232.45 119.54 233.3 120.2 236.33" style="fill:#263238"></polygon><rect x="113.15" y="234.04" width="4.82" height="1.76" transform="translate(27.14 -11.5) rotate(6.46)" style="fill:#fff"></rect><polygon points="90.14 235.84 89.95 237.56 90.83 237.97 90.74 238.71 89.32 238.04 89.64 235.24 91.17 234.9 91.09 235.64 90.14 235.84" style="fill:#263238"></polygon><polygon points="127.63 240.08 127.43 241.8 126.48 242.01 126.4 242.75 127.94 242.41 128.26 239.61 126.83 238.93 126.75 239.67 127.63 240.08" style="fill:#263238"></polygon><path d="M101.27,237.69a53.63,53.63,0,0,1-.38,7.82,54.86,54.86,0,0,1-1.37,7.71,53.63,53.63,0,0,1,.38-7.82A55.12,55.12,0,0,1,101.27,237.69Z" style="fill:#455a64"></path><path d="M113.19,255.86A8.9,8.9,0,1,1,123,248,8.91,8.91,0,0,1,113.19,255.86Zm2-17.19a8.4,8.4,0,1,0,7.39,9.29A8.4,8.4,0,0,0,115.14,238.67Z" style="fill:#37474f"></path><path d="M121,247.79a6.84,6.84,0,1,1-6-7.57A6.85,6.85,0,0,1,121,247.79Z" style="fill:#455a64"></path><polygon points="166.67 238.55 164.5 193.57 155.02 153.74 188.25 157.31 212.8 151.99 238.64 157.24 269.65 149.87 263.55 193.01 270.58 235.81 247.26 241.75 219.27 236.03 196.06 243.48 166.67 238.55" style="fill:#c7c7c7"></polygon><polygon points="196.06 243.48 188.25 157.31 212.8 151.99 219.27 236.03 196.06 243.48" style="fill:#a6a6a6"></polygon><polygon points="247.26 241.75 238.64 157.24 269.65 149.87 263.55 193.01 270.58 235.81 247.26 241.75" style="fill:#a6a6a6"></polygon><path d="M125.61,145.67c-19.1,19.79-35,61.15-25.93,65.12,8.29,3.63,34.7.57,45.57-1.93,3.19-.73-3-25.47-6.43-24.69-4.13.94-14.67,2.37-15.09,2.33-.91-.07,9-27.6,12.22-38.17C140.38,133.6,132.79,138.24,125.61,145.67Z" style="fill:#f7a9a0"></path><path d="M171.69,178.77a3.91,3.91,0,0,1-.36,4.44,5.77,5.77,0,0,1,2.75,2.82c.88,2.21-2.21,4.57-2.21,4.57A7.15,7.15,0,0,1,174.3,194c.63,2.21-2.14,5-2.14,5a6.27,6.27,0,0,1,.23,4.36c-1.36,3.79-7.35,5.1-11.16,6s-15.41-.22-17.64-.2l-5.81-24.37s15.95-8.76,20.57-9.15C162.24,175.34,170.07,176.19,171.69,178.77Z" style="fill:#f7a9a0"></path><path d="M171.07,182.86c-4.22-.64-8.4,0-12.61.4a.07.07,0,1,0,0,.14c4.18-.44,8.4-.06,12.59-.34A.1.1,0,0,0,171.07,182.86Z" style="fill:#263238"></path><path d="M171.72,190.3a10.89,10.89,0,0,0-2.9.22c-1,.15-2,.32-3.06.5q-3,.54-6.06,1.25c-.09,0-.08.16,0,.14,2-.36,4.06-.69,6.1-1l3.06-.39a13.87,13.87,0,0,0,2.88-.48A.15.15,0,0,0,171.72,190.3Z" style="fill:#263238"></path><path d="M172.07,199.07a8,8,0,0,0-2.6.34c-.92.19-1.85.37-2.77.54-1.85.35-3.7.7-5.56,1-.09,0-.08.16,0,.15,1.9-.29,3.79-.54,5.68-.84l2.78-.45a7.21,7.21,0,0,0,2.48-.64S172.11,199.08,172.07,199.07Z" style="fill:#263238"></path><path d="M124.71,185.71c-1.29-1.11,9.26-27,12.18-38.83s-2.54-11.21-11.29-1.75c-9.37,10.14-25,32.58-28.71,55.82-1.16,7.26-2.68,12.44,14.12,12.28a191.35,191.35,0,0,0,29.19-2.3l-3.44-26.6S125.08,186,124.71,185.71Z" style="fill:#832121"></path><path d="M134.27,210.67c-2.06-10.54-2.63-21.92-2.87-23.89,0-.1.14-.1.15,0,.13,1.95,2.2,14.89,2.89,23.89A.09.09,0,0,1,134.27,210.67Z" style="fill:#263238"></path><path d="M111.91,187.68a21.55,21.55,0,0,1,3.18-.63c1-.16,2-.34,3-.51l1.28-.21-.12,0-1.71-.26c-.57-.09-1.14-.22-1.72-.27-.09,0-.08-.16,0-.15.57.08,1.14.08,1.72.13l1.78.14c.52,0,1,.11,1.56.17q1.44-.23,2.88-.42c.43-1.88,1.11-3.74,1.7-5.58s1.26-3.83,1.93-5.73,1.36-3.73,2.1-5.57c.37-.92,2.35-6.58,3-8.06,0-.09.16-.05.13.06-.38,1.5-2.41,7.31-2.7,8.25l-.66,2.06.08-.1,1.16-1.53c.78-1,1.56-2.08,2.24-3.19a.08.08,0,0,1,.14.09c-.64,1.16-1.26,2.32-1.94,3.45-.34.56-.7,1.12-1.07,1.65a8.9,8.9,0,0,1-1.2,1.53h0l-.54,1.69c-.61,1.88-1.23,3.76-1.84,5.65-.55,1.72-1,3.5-1.66,5.2,2-.24,3.93-.46,5.89-.68l3-.33c1.07-.11,2.2-.1,3.26-.28.09,0,.12.13,0,.14-1.06.12-2.13.43-3.18.61l-3,.49c-2.09.34-4.19.69-6.29,1s-4.15.52-6.23.74l-3.13.32a20.78,20.78,0,0,1-3,.24C111.86,187.78,111.86,187.69,111.91,187.68Z" style="fill:#263238"></path><path d="M107.06,213.21c9.07-.24,25.38-1.33,32.94-2.28a.07.07,0,1,1,0,.14,129.9,129.9,0,0,1-33,2.49A.18.18,0,0,1,107.06,213.21Z" style="fill:#263238"></path></g><g id="freepik--speech-bubble--inject-5"><path d="M170.72,100.55a13.35,13.35,0,0,1-2.28-7.37c0-9.33,10.24-16.89,22.87-16.89s22.86,7.56,22.86,16.89-10.23,16.9-22.86,16.9a27.48,27.48,0,0,1-15.78-4.68l-7.88,2Z" style="fill:#fff"></path><path d="M170.72,100.55a13,13,0,0,1-.6-14.16,18,18,0,0,1,5-5.52,24.15,24.15,0,0,1,6.66-3.42,30.13,30.13,0,0,1,14.84-1.12,26.3,26.3,0,0,1,7.17,2.23A22.08,22.08,0,0,1,210,82.84a15.8,15.8,0,0,1,4,6.42,13.08,13.08,0,0,1,.07,7.59,15.79,15.79,0,0,1-3.92,6.49,22.09,22.09,0,0,1-6.15,4.35,29.34,29.34,0,0,1-14.64,2.68,27.16,27.16,0,0,1-14-4.78l.19,0-7.91,1.9-.24.06.1-.22Zm0,0-3,6.9-.14-.16,7.86-2.11.09,0,.1.06a26.81,26.81,0,0,0,13.79,4.45,30.69,30.69,0,0,0,7.29-.51,26.21,26.21,0,0,0,6.92-2.25,21.22,21.22,0,0,0,5.88-4.21,14.75,14.75,0,0,0,3.65-6.1,12.11,12.11,0,0,0-.09-7,15,15,0,0,0-3.75-6,21.29,21.29,0,0,0-5.92-4.13,26.15,26.15,0,0,0-6.93-2.19,30.45,30.45,0,0,0-14.47.93,20.72,20.72,0,0,0-11.55,8.49,13.13,13.13,0,0,0-1.93,7A13.51,13.51,0,0,0,170.72,100.55Z" style="fill:#263238"></path><path d="M199.53,93.18a2.38,2.38,0,1,0,2.38-2.37A2.38,2.38,0,0,0,199.53,93.18Z" style="fill:#263238"></path><path d="M188.94,93.18a2.37,2.37,0,1,0,2.37-2.37A2.37,2.37,0,0,0,188.94,93.18Z" style="fill:#263238"></path><path d="M178.34,93.18a2.37,2.37,0,1,0,2.37-2.37A2.37,2.37,0,0,0,178.34,93.18Z" style="fill:#263238"></path></g></svg>