<svg id="Layer_1" data-name="Layer 1" xmlns="http://www.w3.org/2000/svg" viewBox="0 0 511.95 512.03"><defs><style>.cls-1{fill:#832121;}</style></defs><path class="cls-1" d="M511.2,387,488,487.8A31.08,31.08,0,0,1,457.49,512C205.2,512,0,306.8,0,54.5A31.06,31.06,0,0,1,24.22,24.05L125,.8A31.39,31.39,0,0,1,160.8,18.92l46.52,108.5a31.29,31.29,0,0,1-9,36.45L144.5,207.1A349.66,349.66,0,0,0,304,366.6l44.08-53.8a31.1,31.1,0,0,1,36.47-9l108.5,46.51C506.1,357.2,514.6,372.4,511.2,387Z" transform="translate(0 0.01)"/></svg>