<?xml version="1.0" encoding="utf-8"?>
<!-- Generator: Adobe Illustrator 25.0.1, SVG Export Plug-In . SVG Version: 6.00 Build 0)  -->
<svg version="1.1" id="Layer_1" xmlns="http://www.w3.org/2000/svg" xmlns:xlink="http://www.w3.org/1999/xlink" x="0px" y="0px"
	 viewBox="0 0 792.4 763.7" style="enable-background:new 0 0 792.4 763.7;" xml:space="preserve">
<style type="text/css">
	.st0{fill:#FF6584;}
	.st1{fill:#E6E6E6;}
	.st2{fill:#CCCCCC;}
	.st3{fill:#CACACA;}
	.st4{fill:#3F3D56;}
	.st5{fill:#832121;}
	.st6{fill:#FFFFFF;}
	.st7{fill:#A0616A;}
	.st8{fill:#2F2E41;}
</style>
<circle class="st0" cx="612.2" cy="49.4" r="49.4"/>
<path class="st1" d="M498.3,339.8c-14.3-14.7-34.9-23.2-56.7-23.2l-0.8,0c-14.3,0-28.4-3.8-40.8-11l-1.3-0.8l1-1.1
	c5.6-5.8,10.3-12.5,13.9-19.7c-5.2,4.8-12.2,7.1-19.3,6.2c-7.4-0.9-14-5.1-17.9-11.5c-7.6-12.4-16.7-29.9-16.7-43.2
	c0-22.8,9.6-44.6,26.5-60c10.7-9.6,16.8-23.3,16.7-37.7l0-1c0-9.4,1.1-18.7,3.4-27.8l0.2-0.9l0.9,0c6.1,0.2,12.2-0.3,18.1-1.5
	c-5.6-0.7-11.1-2.1-16.3-4.3l-1-0.4l0.3-1c26-35.1,81.7-53,108.5-78.3C563-20.5,631.4,74,631.4,136.9c0,6.4-6.4,14.9-1.6,19.2
	c51.5,45.9,16,75.4,4.8,105.1c-2.7,7,3.1,14.8,3.1,22.4c0,1.3,0,2.6-0.1,4l-0.1,2.1l-1.7-1.1c-3.4-2.2-6.5-4.8-9.4-7.7
	c6,13.8,5.4,29.5-1.6,42.8c-5.4,10.2-10.6,17.5-15.5,21.7c-14.7,12.6-33.4,19.5-52.7,19.5C534.6,364.5,513.6,355.6,498.3,339.8z"/>
<path class="st2" d="M585,491.6c-0.8-0.1-1.4-0.9-1.2-1.6c0.1-0.4,6.1-43.8,0.7-101.7c-5-53.3-21-130.1-69-193.1
	c-0.5-0.6-0.4-1.6,0.3-2c0.6-0.5,1.6-0.4,2,0.3c48.4,63.5,64.6,140.9,69.6,194.6c5.4,58.1-0.6,101.9-0.7,102.3
	c-0.1,0.7-0.7,1.3-1.4,1.3C585.1,491.6,585.1,491.6,585,491.6z"/>
<path class="st2" d="M540.1,281.2c-13.6-9.2-28.2-16.6-43.6-22.2c-24-8.8-60.6-16.8-98.1-4.8l0,0c-0.8,0.2-1.6-0.2-1.8-0.9
	s0.2-1.6,0.9-1.8c38.3-12.2,75.5-4.1,100,4.9c15.7,5.7,30.6,13.2,44.4,22.6c0.4,0.3,0.6,0.7,0.6,1.2c0,0.8-0.7,1.5-1.5,1.5
	C540.7,281.4,540.4,281.3,540.1,281.2z"/>
<path class="st2" d="M608.4,110.1c-10.1,12.9-18.6,27-25.3,41.9c-10.5,23.3-21.1,59.2-11.9,97.5c0.2,0.8-0.3,1.6-1.1,1.8
	s-1.6-0.3-1.8-1.1c-9.4-39.1,1.4-75.6,12.1-99.4c6.8-15.2,15.4-29.5,25.7-42.6c0.3-0.4,0.8-0.5,1.2-0.5c0.8,0.1,1.4,0.8,1.3,1.6
	C608.7,109.6,608.6,109.9,608.4,110.1z"/>
<path class="st3" d="M103.3,577.9c-33-0.7-67-1.4-103.3-2l0-2c36.3,0.6,70.4,1.3,103.3,2c175.6,3.8,302.5,6.5,379.6-24.1
	c130-51.5,174.1-72.9,174.5-73.1l0.9,1.8c-0.4,0.2-44.5,21.6-174.6,73.2c-53.4,21.2-130.4,26.4-230.6,26.4
	C207.9,580.2,157.9,579.1,103.3,577.9z"/>
<path class="st3" d="M604.1,639.5l-0.8-0.8l145.1-104.8l1.2,1.6L606.4,638.9c4,3.9,22.7,22.5,71.3,71.1l-1.4,1.4
	C620.9,656,604.3,639.6,604.1,639.5z"/>
<path class="st3" d="M475.1,661.9L475.1,661.9L2.9,666.7l0-2l472.1-4.8h0.1c20.5,0,125.9,98.2,130.4,102.3l-1.4,1.5
	C603,762.7,494.8,661.9,475.1,661.9z"/>
<rect x="12.9" y="610.7" class="st3" width="121.3" height="2"/>
<rect x="239.9" y="610.7" class="st3" width="121.3" height="2"/>
<path class="st4" d="M366.9,449.5c-3.3,0-6,2.7-6,6v19.2c0,3.3,2.7,6,6,6h70v66c0,4.4,3.6,8,8,8s8-3.6,8-8v-66h70c3.3,0,6-2.7,6-6
	v-19.2c0-3.3-2.7-6-6-6h-70v-17.7H549c1.2,0,2.5-0.4,3.5-1.1l13.5-9.6c0.6-0.4,1-0.9,1.4-1.4c1.9-2.7,1.3-6.4-1.4-8.4l-13.5-9.6
	c-1-0.7-2.2-1.1-3.5-1.1h-96.1v-6c0-4.4-3.6-8-8-8s-8,3.6-8,8v6h-26c-3.3,0-6,2.7-6,6v19.2c0,3.3,2.7,6,6,6h26v17.7H366.9
	L366.9,449.5z"/>
<path class="st5" d="M481.4,413.7c0-1.9,1.6-3.5,3.5-3.5h50l0,0c1.9,0,3.5,1.6,3.5,3.5s-1.6,3.5-3.5,3.5h-50
	C483,417.2,481.4,415.6,481.4,413.7z"/>
<path class="st6" d="M419.4,464.7c0-1.9,1.6-3.5,3.5-3.5h50c1.9,0,3.5,1.6,3.5,3.5s-1.6,3.5-3.5,3.5h-50
	C421,468.2,419.4,466.6,419.4,464.7z"/>
<path class="st4" d="M662.9,549.5v97.2c0,0.2,0,0.4,0,0.5c0.3,4.4,4.1,7.7,8.5,7.5c4.3-0.4,7.5-4,7.5-8.3v-65.7v-48.8l92.2,38.6
	c0.6,0.3,1.2,0.4,1.8,0.4c3.2,0.1,7.7,0.4,14.7,0.6c0.5,0,0.9,0,1.4-0.2c2.5-0.7,3.9-3.3,3.3-5.7c-1.2-4.3-3-9.9-3.8-12.4
	c-0.3-0.9-1-1.7-1.9-2.1l-107.6-50.3v-6c0-0.2,0-0.4,0-0.5c-0.3-4.4-4.1-7.7-8.5-7.5c-4.3,0.4-7.5,4-7.5,8.3v5.7h-26
	c-3.3,0-6,2.7-6,6v19.2c0,3.3,2.7,6,6,6h26V549.5L662.9,549.5z"/>
<path class="st6" d="M702.9,527.5c0.8-1.8,2.9-2.6,4.6-1.8l45.6,20.5l0,0c1.8,0.8,2.6,2.9,1.8,4.6c-0.8,1.8-2.9,2.6-4.6,1.8
	l-45.6-20.5C702.9,531.4,702.1,529.3,702.9,527.5z"/>
<path class="st7" d="M89.8,408.1l13.9,52c-1.7,2.2-1.9,5.2-0.6,7.6c1.9,3.2,6,4.3,9.2,2.5c3.2-1.9,4.3-6,2.5-9.2l0.1,0l-6.3-58.3
	c4.5-9.8,6.4-20.5,5.4-31.3l-20.9-2.1L89.8,408.1z"/>
<polygon class="st7" points="151.5,590.8 167.1,596.7 166.2,623.5 157.4,625 "/>
<path class="st8" d="M156.8,623.4l2.4-0.4l8.6-5.4l5.6,2.9l0,0c5.9-1,11.4,2.9,12.4,8.8l0.1,0.3l-27.2,4.7L156.8,623.4z"/>
<polygon class="st7" points="86.5,576.9 97.9,583.8 76.1,611.2 68.5,606.5 "/>
<path class="st8" d="M69.1,604.9l2.1,1.3l10,1.6l2.3,5.9l0,0c5.1,3.1,6.7,9.7,3.6,14.8l-0.2,0.3l-23.6-14.4L69.1,604.9z"/>
<path class="st8" d="M97.8,447.2c-15.9,14.5-3.9,30.5-3.9,30.5l7.9,67.4l-12.8,24.1c0,0-7.6,5.4-7.2,7.5l-5.6,5.2l0,0
	c-1.7,1-2.3,3.2-1.5,5l1,2.1l16.5,8.3l33.6-38.6l3.6-36.2l1.3,13.8l2.8,5.2l-0.9,4.6l3.6,8.8l11,39.2c0.2,4,3.7,4.6,1.7,6.2
	s1.6,5.6,1.6,5.6c-1.4,1.8-1.1,3.4,1.4,4.8l17-2l-4.8-57.1c0,0-5.3-46.4-3.6-49.4s-1.7-2.2-2.1-4.3c-0.1-2.2,0.6-4.4,1.8-6.2
	c0.8-0.8-0.7-9.1-0.7-9.1l-5.3-20.2C154.3,462.4,104.3,441.3,97.8,447.2z"/>
<path class="st5" d="M92.1,448.8c1.3,4.5,3.6,8.6,6.8,12c5,4.9,24.8,6.9,31.4-0.2s27.5,9.3,27.5,9.3c-9.4-42.2-13.2-74.7-12.7-99.1
	c0.3-12.7-8.6-21.3-14-28l-1.5-5.3l-18,0.8l-1.6,4.3l-10.6,12.1c-5.6,6.5-8.5,14.9-8.1,23.4l0,0l7.4,35.9c5.1,7.2-0.6,8.6-2.9,16.1
	s4.5,1.5,7.3,5.7C106,440,92.1,448.8,92.1,448.8z"/>
<path class="st8" d="M91.7,463.9c-0.1-0.5-2.3-12.6,0.9-15.4c1.4-1.1,2.3-2.8,2.4-4.6c0-2-0.9-4-2.5-5.3c-2.5-2.5-0.7-6.5,0.7-9.7
	c0.9-1.9,1.7-3.7,1.4-4.7c-0.4-1.7-2.6-21.3-4.3-37.4c-1.6-14.6,2.4-30.4,12.5-41l7-4l11,1c8.5-0.6,14.3,4.5,18,11.6
	c3.1,6.1,4.4,12.8,3.8,19.6c-2.3,31.8,5,69.3,17.1,91.8l-27-13l-41.1,11.6L91.7,463.9z"/>
<path class="st7" d="M119.7,423l27.1,46.5c-1.1,2.6-0.5,5.5,1.5,7.5c2.7,2.6,6.9,2.6,9.6-0.1c2.6-2.7,2.6-6.9-0.1-9.6l0.1,0
	l-21.4-54.6c1.8-10.6,0.7-21.5-3-31.6l-20.7,3.5L119.7,423z"/>
<path class="st5" d="M136.1,373.3c0-7.5-6.1-13.5-13.5-13.5c-7.5,0-13.5,6.1-13.5,13.5l3.9,17.4l24,5
	C138.1,385.8,138.5,383,136.1,373.3z"/>
<circle class="st7" cx="121.4" cy="316.5" r="18.8"/>
<path class="st8" d="M99.7,323.4c0.6,5.3,4.8,10.5,10.1,10.8l-0.8-0.2c2.2-0.2,4.4-0.3,6.6-0.5c-1.3-1.8-2.7-3.6-2.9-5.8
	s1.2-4.7,3.4-4.8c1.5-0.1,3,1,4.5,0.8c2.2-0.3,3.2-3,3.3-5.2s-0.2-4.7,1.2-6.5c1.4-1.8,4-2,6.3-1.7s4.5,1,6.8,0.7
	c3.6-0.6,6.5-4.7,5.3-8.2c-0.2-1-1-1.7-1.9-2c-0.8-0.1-1.5,0.4-1.7,1.1c-0.1-1.3-0.2-2.6-0.2-3.9c-1.4,2.4-4.4,3.4-7,2.2
	c0.5-1.3,0.9-2.5,1.4-3.8c-0.7,1.5-2.6,1.8-4.2,1.3c-1.5-0.6-2.8-1.4-4.1-2.4c-3.6-2-8-1.9-11.5,0.1c-2.1,1.4-3.9,3.2-5.4,5.3
	c-1.8,2.4-7.6-1-9.1,1.7C97,306.9,99.1,318,99.7,323.4z"/>
</svg>
