<?xml version="1.0" encoding="utf-8"?>
<!-- Generator: Adobe Illustrator 25.0.1, SVG Export Plug-In . SVG Version: 6.00 Build 0)  -->
<svg version="1.1" id="Layer_1" xmlns="http://www.w3.org/2000/svg" xmlns:xlink="http://www.w3.org/1999/xlink" x="0px" y="0px"
	 viewBox="0 0 590.7 659.4" style="enable-background:new 0 0 590.7 659.4;" xml:space="preserve">
<style type="text/css">
	.st0{fill:#E6E6E6;}
	.st1{fill:#F2F2F2;}
	.st2{fill:#FFFFFF;}
	.st3{fill:#E5E5E5;}
	.st4{fill:#3F3D56;}
	.st5{fill:#FFB8B8;}
	.st6{fill:#2F2E41;}
	.st7{fill:#A0616A;}
	.st8{fill:#832121;}
	.st9{fill:#CACACA;}
	.st10{fill:#FFB6B6;}
	.st11{opacity:0.3;enable-background:new    ;}
	.st12{opacity:0.2;}
</style>
<path id="e846ef3a-3b5e-448c-8d47-a4173376229f-246" class="st0" d="M562.9,621.5c-7.5,2.6-15.8,1.2-21.9-3.9
	c-7.7-6.5-10.1-17.1-12.1-26.9l-5.8-29.1l12.1,8.4c8.7,6,17.7,12.2,23.7,20.9s8.7,20.6,3.8,30"/>
<path id="b0167a87-6d3c-4fe1-a02f-2e6974de103a-247" class="st1" d="M561.9,656.7c1.2-9,2.5-18,1.6-27.1c-0.8-8-3.2-15.9-8.2-22.3
	c-2.6-3.4-5.9-6.3-9.5-8.6c-1-0.6-1.8,0.9-0.9,1.5c6.3,4,11.2,9.9,14,16.8c3,7.7,3.5,16.2,3,24.4c-0.3,5-1,9.9-1.7,14.8
	c-0.1,0.5,0.2,0.9,0.6,1.1C561.3,657.5,561.8,657.2,561.9,656.7L561.9,656.7z"/>
<path class="st2" d="M517.9,508H9.9V0h508V508z"/>
<path class="st3" d="M517.9,508H9.9V0h508V508z M17.4,500.5h493V7.5h-493V500.5z"/>
<rect x="207.9" y="79.5" class="st3" width="220" height="6.9"/>
<rect x="207.9" y="97.3" class="st3" width="220" height="6.9"/>
<rect x="207.9" y="115.1" class="st3" width="220" height="6.9"/>
<rect x="207.9" y="232.5" class="st3" width="220" height="6.9"/>
<rect x="207.9" y="250.3" class="st3" width="220" height="6.9"/>
<rect x="207.9" y="268.1" class="st3" width="220" height="6.9"/>
<rect x="207.9" y="385.5" class="st3" width="220" height="6.9"/>
<rect x="207.9" y="403.3" class="st3" width="220" height="6.9"/>
<rect x="207.9" y="421.1" class="st3" width="220" height="6.9"/>
<path class="st4" d="M119.8,134.1c-3.8-2-7.7-3.6-11.7-4.9l-0.5-5.7l-20.9-2.3l-2.7,7.3l-7.5,2.8c-0.3,0.1-0.5,0.2-0.8,0.4h0
	c-0.8,0.6-1.4,1.5-1.6,2.5c-0.1,0.5-0.1,1,0.1,1.5l0.4,1.6c0.6,0.3,1.2,0.7,1.7,1l0.4,0.2c0.9,0.4,1.7,0.9,2.6,1.3
	c0.2,0.1,0.4,0.2,0.6,0.2c0,0,0,0,0,0c0.4,0.2,0.8,0.3,1.3,0.5c1.4,0.5,2.8,1,4.3,1.4c3.7,1,7.6,1.5,11.4,1.5c1.4,0,2.8-0.1,4.2-0.2
	c3.1-0.3,6.2-0.9,9.2-1.9c0,0,0,0,0,0c1.9-0.6,3.7-1.3,5.5-2.2c0,0,0,0,0,0c0.4-0.2,0.8-0.4,1.2-0.6l0.2-0.1c0.3-0.2,0.6-0.3,1-0.5
	c0.8-0.4,1.6-0.9,2.3-1.4c0.2-0.1,0.4-0.3,0.6-0.4c0.3-0.2,0.6-0.4,0.9-0.6C121.4,135,120.6,134.5,119.8,134.1z"/>
<path class="st4" d="M80.6,137.6l-1.3-5.9h-3.4c0,0-0.1,0-0.1,0h0c-1.2,0.1-2.4,0.5-3.4,1.2c-0.7,0.4-1.3,1-1.8,1.6
	c1,0.8,2.1,1.5,3.2,2.2l0,0c0.3,0.2,0.6,0.4,0.9,0.6c0.6,0.3,1.2,0.7,1.7,1l0.4,0.2c0.9,0.4,1.7,0.9,2.6,1.3
	c0.2,0.1,0.4,0.2,0.6,0.2c0,0,0,0,0,0c0.4,0.2,0.8,0.3,1.3,0.5L80.6,137.6z"/>
<circle class="st5" cx="96.3" cy="102.5" r="15.1"/>
<path class="st6" d="M86.2,95.2c1.6,1.8,4.2,2.4,6.6,2.6c5.7,0.3,11.4-0.2,17-1.4c0.3,3.3-0.6,6.9,1.4,9.7c0.9-3.3,1.5-6.8,1.6-10.2
	c0.1-1.5,0-3-0.6-4.4c-0.6-1.4-1.9-2.4-3.4-2.5c1.1-0.9,2.4-1.4,3.8-1.6l-4.8-2.4l1.2-1.3l-8.7-0.5l2.5-1.6
	c-3.8-0.5-7.6-0.6-11.4-0.4c-1.8,0-3.5,0.5-5,1.4c-1.4,1-2.3,3.1-1.4,4.6c-2.3,0.4-4.2,1.9-5,4c-0.5,1.7-0.7,3.4-0.4,5.1
	c0.3,2.8,1,5.5,1.9,8.1L86.2,95.2z"/>
<path class="st4" d="M138.6,86.2c-8-23.1-33.2-35.2-56.3-27.2s-35.2,33.2-27.2,56.3c1.6,4.7,4,9,7.1,12.9c0.4,0.5,0.8,1,1.2,1.5
	c0,0,0.1,0.1,0.1,0.1c1,1.2,2.1,2.3,3.3,3.4c0.3,0.3,0.6,0.6,0.9,0.8c0.6,0.5,1.2,1.1,1.9,1.5c0.3,0.2,0.5,0.4,0.8,0.6
	c1,0.8,2.1,1.5,3.2,2.2l0,0c0.3,0.2,0.6,0.4,0.9,0.6c0.6,0.3,1.2,0.7,1.7,1l0.4,0.2c0.9,0.4,1.7,0.9,2.6,1.3
	c0.2,0.1,0.4,0.2,0.6,0.2c0,0,0,0,0,0c0.4,0.2,0.8,0.3,1.3,0.5c1.4,0.5,2.8,1,4.3,1.4c3.7,1,7.6,1.5,11.4,1.5c1.4,0,2.8-0.1,4.2-0.2
	c3.1-0.3,6.2-0.9,9.2-1.9c0,0,0,0,0,0c1.9-0.6,3.7-1.3,5.5-2.2c0,0,0,0,0,0c0.4-0.2,0.8-0.4,1.2-0.6l0.2-0.1c0.3-0.2,0.6-0.3,1-0.5
	c0.8-0.4,1.6-0.9,2.3-1.4c0.2-0.1,0.4-0.3,0.6-0.4c0.3-0.2,0.6-0.4,0.9-0.6c0.4-0.3,0.8-0.5,1.2-0.8c0.1-0.1,0.2-0.2,0.4-0.3
	C138.9,124.4,144.9,104.3,138.6,86.2L138.6,86.2z M122.2,134c-0.3,0.2-0.5,0.4-0.8,0.6c-0.3,0.2-0.5,0.4-0.8,0.6
	c-0.2,0.2-0.5,0.3-0.7,0.5l-0.1,0c-0.2,0.1-0.3,0.2-0.5,0.3c-0.7,0.4-1.3,0.8-2,1.2l-0.2,0.1c-0.3,0.2-0.6,0.3-0.9,0.5
	c0,0-0.1,0-0.1,0.1l0,0c-0.4,0.2-0.8,0.4-1.2,0.6c-1.5,0.7-3,1.3-4.6,1.9c-0.2,0.1-0.4,0.1-0.6,0.2c-2.8,0.9-5.8,1.5-8.7,1.8
	c-1.3,0.1-2.6,0.2-3.9,0.2c-3.6,0-7.3-0.5-10.8-1.4c-1.8-0.5-3.6-1.1-5.3-1.8c-0.1,0-0.2-0.1-0.3-0.1c-0.1,0-0.2-0.1-0.3-0.1
	c-0.1,0-0.2-0.1-0.3-0.1c-0.7-0.3-1.5-0.7-2.2-1.1l-0.3-0.2c-0.9-0.5-1.7-1-2.6-1.5c-0.2-0.2-0.5-0.3-0.7-0.5
	c-0.1,0-0.1-0.1-0.2-0.1c-0.6-0.4-1.1-0.8-1.7-1.2c-0.4-0.3-0.7-0.6-1.1-0.8c-0.6-0.5-1.2-1-1.8-1.5c-0.3-0.3-0.6-0.5-0.9-0.8
	c-1.1-1-2.2-2.1-3.2-3.3c-0.3-0.4-0.7-0.8-1-1.2c-0.1-0.1-0.1-0.2-0.2-0.2C49.8,108.6,52.9,82.3,71,68s44.4-11.3,58.7,6.8
	c14.3,18.1,11.3,44.4-6.8,58.7C122.6,133.6,122.4,133.8,122.2,134L122.2,134z"/>
<path class="st2" d="M138.6,239.2c-8-23.1-33.2-35.2-56.3-27.2c-23.1,8-35.2,33.2-27.2,56.3c1.6,4.7,4,9,7.1,12.9
	c0.4,0.5,0.8,1,1.2,1.5c0,0,0.1,0.1,0.1,0.1c1,1.2,2.1,2.3,3.3,3.4c0.3,0.3,0.6,0.6,0.9,0.8c0.6,0.5,1.2,1.1,1.9,1.5
	c1.3,1,2.6,1.9,3.9,2.8l0,0c0.9,0.5,1.8,1.1,2.7,1.5l0.4,0.2c0.9,0.4,1.7,0.9,2.6,1.3c0.2,0.1,0.4,0.2,0.6,0.2c0,0,0,0,0,0
	c1.8,0.8,3.7,1.4,5.6,1.9c3.7,1,7.6,1.5,11.4,1.5c1.4,0,2.8-0.1,4.2-0.2c3.1-0.3,6.2-0.9,9.2-1.9c0,0,0,0,0,0
	c1.9-0.6,3.7-1.3,5.5-2.2c0,0,0,0,0,0c0.4-0.2,0.8-0.4,1.2-0.6l0.2-0.1c0.3-0.2,0.6-0.3,1-0.5c0.8-0.4,1.6-0.9,2.3-1.4
	c0.2-0.1,0.4-0.3,0.6-0.4c0.7-0.5,1.4-1,2.1-1.5c0.1-0.1,0.2-0.2,0.4-0.3C138.9,277.4,144.9,257.3,138.6,239.2L138.6,239.2z"/>
<circle id="f2095780-2301-4cc1-9693-3d089d317ca1" class="st6" cx="111.5" cy="265.3" r="6.6"/>
<path id="fe36a822-bf42-420c-ba8a-fcca90365ca6-248" class="st6" d="M113.3,258.9c3.7,0,6.6,3,6.6,6.6c0,1.1-0.3,2.2-0.8,3.1
	c2.3-2.9,1.8-7-1-9.3c-2.9-2.3-7-1.8-9.3,1c-0.2,0.3-0.5,0.6-0.7,1C109.4,259.8,111.3,258.9,113.3,258.9L113.3,258.9z"/>
<circle id="e26e4994-e49f-47aa-919e-dc7dee2cb7c3" class="st6" cx="99.1" cy="245.9" r="19.5"/>
<path id="ac420ffb-80fa-461b-bc18-228b12874f63-249" class="st6" d="M83.8,233.8c7-7.8,18.9-8.7,27-2c-0.2-0.2-0.3-0.3-0.5-0.5
	c-8-7.2-20.3-6.5-27.5,1.5c-7.2,8-6.5,20.3,1.5,27.5c0,0,0.1,0.1,0.1,0.1c0.2,0.1,0.3,0.3,0.5,0.4C77.4,253.6,76.9,241.6,83.8,233.8
	L83.8,233.8z"/>
<circle id="a12696bc-31d6-40e2-aafc-0c11595f0891" class="st7" cx="99" cy="252.6" r="12.5"/>
<path class="st8" d="M121.4,285.3v4.2c-0.8,0.5-1.5,1-2.3,1.4c-0.3,0.2-0.6,0.3-1,0.5l-0.2,0.1c-0.4,0.2-0.8,0.4-1.2,0.6
	c0,0,0,0,0,0c-1.8,0.9-3.6,1.6-5.5,2.2c0,0,0,0,0,0c-3,0.9-6.1,1.6-9.2,1.9c-1.4,0.1-2.8,0.2-4.2,0.2c-3.8,0-7.7-0.5-11.4-1.5
	c-1.9-0.5-3.8-1.1-5.6-1.9c0,0,0,0,0,0c-0.2-0.1-0.4-0.2-0.6-0.2c-0.9-0.4-1.8-0.8-2.6-1.3l-0.4-0.2c-0.9-0.5-1.8-1-2.7-1.5l0,0
	c-1.4-0.8-2.7-1.8-3.9-2.8c-0.6-0.5-1.3-1-1.9-1.5c-0.3-0.3-0.6-0.6-0.9-0.8c-1.2-1.1-2.3-2.2-3.3-3.4c0.1-0.8,0.3-1.6,0.6-2.4l0,0
	c0-0.1,0.1-0.3,0.2-0.4c0-0.1,0.1-0.2,0.2-0.3c1.4-2.7,4-3.3,7.2-3.5c1.8-0.1,3.8,0,5.9,0c1.1,0,2.3,0,3.4-0.2
	c7.3-0.7,5.9-4.9,6.3-7.3c0.3-2.2,2.3-0.3,2.5-0.2l0,0c4.1,1.9,8.7,2.7,13.2,2.3c0.8-0.1,1.6-0.2,2.3-0.2c2,0,1.6,0.6,0.9,1
	c-0.3,0.2-0.7,0.4-1.1,0.6c0,0-0.3,2-0.7,5c-0.3,2.8,5.1,4.2,5.6,4.3c0,0,0,0,0,0c2-0.5,4.1-0.5,6,0.2h0
	C119.1,281,120.8,282.9,121.4,285.3z"/>
<path class="st6" d="M80.8,290.4c0,0.6,0,1.2,0,1.7c0,0.3,0,0.6,0,0.9c0,0,0,0,0,0c-0.2-0.1-0.4-0.2-0.6-0.2
	c-0.9-0.4-1.8-0.8-2.6-1.3l-0.4-0.2c-0.9-0.5-1.8-1-2.7-1.5c0-0.3,0.1-0.6,0.1-0.8c0.1-0.6,0.2-1.2,0.2-1.8
	c0.3-4.3-0.5-8.6-2.3-12.5v0c-0.2-0.3-0.3-0.5-0.3-0.5s2.3-2,5.6,0c0.2,0.1,0.4,0.3,0.5,0.5C80.4,276.9,80.9,284.7,80.8,290.4z"/>
<path class="st6" d="M116.8,289.3c0,0.9-0.1,1.8-0.1,2.8v0c0,0,0,0,0,0c-1.8,0.9-3.6,1.6-5.5,2.2c0,0,0,0,0,0L111,292l0-0.3
	l-0.4-10.9c0-1,0.7-1.9,1.7-1.9c0,0,0.1,0,0.1,0h4c0.2,0,0.3,0.4,0.4,1.1v0C117.1,283.2,117.1,286.2,116.8,289.3z"/>
<path id="e6a5f050-bb79-4898-9f1b-a16710d0980e-250" class="st6" d="M88.2,236.9v12.5h2.9l3.7-4l-0.5,4h12.8l-0.8-4l1.6,4h2v-12.5
	H88.2z"/>
<ellipse id="bcc9b546-fa99-40e5-8b80-3cc98cb6450e" class="st7" cx="86.3" cy="250" rx="1" ry="1.8"/>
<ellipse id="aac24dc1-8688-403d-884a-09279027a7ab" class="st7" cx="111.7" cy="250" rx="1" ry="1.8"/>
<path class="st8" d="M124.1,287.6c-0.7,0.5-1.4,1-2.1,1.5c-0.2,0.1-0.4,0.3-0.6,0.4c-0.8,0.5-1.5,1-2.3,1.4c-0.3,0.2-0.6,0.3-1,0.5
	v-8.7c0,0,1.3,1,3.3,2.7c0.3,0.2,0.5,0.4,0.8,0.7C122.8,286.5,123.4,287,124.1,287.6z"/>
<path class="st4" d="M138.6,239.2c-8-23.1-33.2-35.2-56.3-27.2c-23.1,8-35.2,33.2-27.2,56.3c1.6,4.7,4,9,7.1,12.9
	c0.4,0.5,0.8,1,1.2,1.5c0,0,0.1,0.1,0.1,0.1c1,1.2,2.1,2.3,3.3,3.4c0.3,0.3,0.6,0.6,0.9,0.8c0.6,0.5,1.2,1.1,1.9,1.5
	c1.3,1,2.6,1.9,3.9,2.8l0,0c0.9,0.5,1.8,1.1,2.7,1.5l0.4,0.2c0.9,0.4,1.7,0.9,2.6,1.3c0.2,0.1,0.4,0.2,0.6,0.2c0,0,0,0,0,0
	c1.8,0.8,3.7,1.4,5.6,1.9c3.7,1,7.6,1.5,11.4,1.5c1.4,0,2.8-0.1,4.2-0.2c3.1-0.3,6.2-0.9,9.2-1.9c0,0,0,0,0,0
	c1.9-0.6,3.7-1.3,5.5-2.2c0,0,0,0,0,0c0.4-0.2,0.8-0.4,1.2-0.6l0.2-0.1c0.3-0.2,0.6-0.3,1-0.5c0.8-0.4,1.6-0.9,2.3-1.4
	c0.2-0.1,0.4-0.3,0.6-0.4c0.7-0.5,1.4-1,2.1-1.5c0.1-0.1,0.2-0.2,0.4-0.3C138.9,277.4,144.9,257.3,138.6,239.2L138.6,239.2z
	 M122.2,287c-0.3,0.2-0.5,0.4-0.8,0.6c-0.3,0.2-0.5,0.4-0.8,0.6c-0.2,0.2-0.5,0.3-0.7,0.5c-0.2,0.1-0.4,0.3-0.6,0.4
	c-0.7,0.4-1.3,0.8-2,1.2l-0.2,0.1c-0.3,0.2-0.6,0.3-0.9,0.5c0,0-0.1,0-0.1,0.1l0,0c-0.4,0.2-0.8,0.4-1.2,0.6c-1.5,0.7-3,1.3-4.6,1.9
	c-0.2,0.1-0.4,0.1-0.6,0.2c-2.8,0.9-5.8,1.5-8.7,1.8c-1.3,0.1-2.6,0.2-3.9,0.2c-3.6,0-7.3-0.5-10.8-1.4c-1.8-0.5-3.6-1.1-5.3-1.8
	c-0.2-0.1-0.4-0.2-0.5-0.2c-0.1,0-0.2-0.1-0.3-0.1c-0.7-0.3-1.5-0.7-2.2-1.1l-0.3-0.2c-0.9-0.5-1.7-1-2.6-1.5
	c-0.3-0.2-0.6-0.4-0.9-0.6c-1-0.6-1.9-1.3-2.8-2c-0.6-0.5-1.2-1-1.8-1.5c-0.3-0.3-0.6-0.5-0.9-0.8c-1.1-1-2.2-2.1-3.2-3.3
	c-0.3-0.4-0.7-0.8-1-1.2c-0.1-0.1-0.1-0.2-0.2-0.2C49.8,261.6,52.9,235.3,71,221c18.1-14.3,44.4-11.3,58.7,6.8s11.3,44.4-6.8,58.7
	C122.6,286.6,122.4,286.8,122.2,287L122.2,287z"/>
<circle class="st6" cx="97.2" cy="409.3" r="17.3"/>
<ellipse transform="matrix(0.7071 -0.7071 0.7071 0.7071 -256.7275 172.4874)" class="st6" cx="79.8" cy="396.1" rx="7.2" ry="5.4"/>
<ellipse transform="matrix(0.3928 -0.9196 0.9196 0.3928 -294.1953 337.6739)" class="st6" cx="108.6" cy="391.6" rx="5.4" ry="7.2"/>
<path class="st9" d="M117.9,442.9l-2-3.2c-1.8-4-6.5-5.8-10.6-4c-4,1.8-5.8,6.5-4.1,10.5l0.6,2.1l0.7,2.4c2.7-0.3,5.3-0.9,7.9-1.7
	c0,0,0,0,0,0c1.9-0.6,3.8-1.3,5.6-2.2c0,0,0,0,0,0c0.4-0.2,0.8-0.4,1.2-0.6c0.1,0,0.1-0.1,0.2-0.1c0.3-0.2,0.6-0.3,1-0.5
	c0.3-0.2,0.6-0.4,0.9-0.5L117.9,442.9z"/>
<circle class="st10" cx="97.7" cy="413.4" r="14.7"/>
<path class="st9" d="M118.9,442.2c-1.6-2.7-3.6-5.1-6-7.2c-1.6-1.4-3.7-2.2-5.8-2.2H86.4c-4.8,0-8.7,3.9-8.7,8.7c0,0.2,0,0.4,0,0.6
	c0,0.7,0.2,1.3,0.4,2c0.1,0.5,0.3,0.9,0.5,1.4l1,2c0.1,0,0.2,0.1,0.2,0.1c0,0,0,0,0,0c0.4,0.2,0.8,0.3,1.3,0.5
	c1.4,0.5,2.8,1,4.3,1.4c2.3,0.6,4.7,1.1,7.2,1.3c1.4,0.1,2.8,0.2,4.2,0.2c1.4,0,2.8-0.1,4.2-0.2c0.5,0,0.9-0.1,1.4-0.1
	c2.7-0.3,5.3-0.9,7.9-1.7c0,0,0,0,0,0c1.9-0.6,3.8-1.3,5.6-2.2c0,0,0,0,0,0c0.4-0.2,0.8-0.4,1.2-0.6c0.1,0,0.1-0.1,0.2-0.1
	c0.3-0.2,0.6-0.3,1-0.5c0.3-0.2,0.6-0.4,0.9-0.5c0.3-0.2,0.6-0.4,0.9-0.5C119.7,443.6,119.3,442.9,118.9,442.2z"/>
<path class="st9" d="M90.2,435.5c-4-1.9-8.7-0.2-10.6,3.8l-1.8,2.8l-0.9,1.3l-1.3,2c0.3,0.2,0.5,0.3,0.8,0.5l0.4,0.2
	c0.9,0.4,1.7,0.9,2.6,1.2c0.1,0,0.2,0.1,0.3,0.1c0.1,0,0.2,0.1,0.2,0.1c0,0,0,0,0,0c0.4,0.2,0.8,0.3,1.3,0.5c1.4,0.5,2.8,1,4.3,1.4
	c2.3,0.6,4.7,1.1,7.2,1.3l0.7-2.4l0.7-2.3C95.9,442.1,94.2,437.3,90.2,435.5z"/>
<path class="st6" d="M82.3,404.2c3.4,2.3,7.3,3.5,11.4,3.5c-1.5,1-3.1,1.7-4.9,2c5.4,1.2,11,1.2,16.5,0.1c1.2-0.2,2.4-0.6,3.4-1.2
	c1.1-0.6,1.9-1.6,2.1-2.8c0.4-2.1-1.2-3.9-2.9-5.2c-5.2-3.9-11.8-5.2-18.1-3.6c-2.1,0.4-3.9,1.5-5.4,3c-1.4,1.6-1.6,4-0.5,5.8
	L82.3,404.2z"/>
<path class="st4" d="M135.7,427.9c11.7-21.4,3.8-48.3-17.6-60c-21.4-11.7-48.3-3.8-60,17.6c-2.4,4.3-4,9.1-4.8,14
	c-0.1,0.6-0.2,1.3-0.3,1.9c0,0,0,0.1,0,0.1c-0.2,1.6-0.3,3.1-0.3,4.7c0,0.4,0,0.8,0,1.3c0,0.8,0,1.6,0.1,2.4c0,0.3,0,0.6,0.1,1
	c0.1,1.3,0.3,2.5,0.5,3.8c0,0,0,0,0,0.1c0.1,0.4,0.1,0.7,0.2,1.1c0.1,0.3,0.1,0.7,0.2,1c0.1,0.3,0.1,0.6,0.2,0.9l0.1,0.4
	c0.3,0.9,0.5,1.9,0.8,2.8c0,0.1,0.1,0.2,0.1,0.3c0,0.1,0.1,0.2,0.1,0.2c0,0,0,0,0,0c0.2,0.4,0.3,0.9,0.5,1.3
	c0.5,1.4,1.2,2.8,1.9,4.1c1.1,2.2,2.4,4.2,3.9,6.2c0.9,1.1,1.7,2.2,2.7,3.3c0.9,1,1.9,2,2.9,3c0.3,0.3,0.7,0.6,1,0.9
	c2,1.8,4.2,3.3,6.6,4.7c0,0,0,0,0,0c1.7,1,3.5,1.9,5.4,2.6c0,0,0,0,0,0c0.4,0.2,0.8,0.3,1.2,0.5c0.1,0,0.1,0.1,0.2,0.1
	c0.3,0.1,0.7,0.3,1,0.4c0.3,0.1,0.7,0.2,1,0.3c0.3,0.1,0.7,0.2,1,0.3c0.2,0.1,0.4,0.1,0.5,0.2c0.2,0.1,0.5,0.1,0.7,0.2
	c0.3,0.1,0.7,0.2,1,0.2c0.5,0.1,0.9,0.2,1.4,0.3c0.1,0,0.3,0.1,0.4,0.1C107.6,453.7,126.5,444.7,135.7,427.9L135.7,427.9z
	 M89.2,447.8c-0.3-0.1-0.7-0.1-1-0.2c-0.3-0.1-0.6-0.1-1-0.2c-0.3-0.1-0.5-0.1-0.8-0.2c0,0-0.1,0-0.1,0c-0.2,0-0.4-0.1-0.6-0.2
	c-0.1,0-0.3-0.1-0.4-0.1c-0.4-0.1-0.8-0.2-1.2-0.4c-0.2-0.1-0.4-0.1-0.6-0.2c-0.1,0-0.2-0.1-0.2-0.1c-0.3-0.1-0.6-0.2-1-0.4
	c0,0-0.1,0-0.1,0c0,0,0,0,0,0c-0.4-0.1-0.8-0.3-1.2-0.5c-1.5-0.6-3-1.4-4.5-2.2c-0.2-0.1-0.4-0.2-0.6-0.3c-2.3-1.3-4.5-2.9-6.5-4.7
	c-0.2-0.2-0.5-0.4-0.7-0.6c-1-0.9-1.9-1.8-2.8-2.8c-0.8-0.9-1.6-1.8-2.3-2.7c-1.5-1.9-2.8-4-3.9-6.2c-0.9-1.7-1.6-3.4-2.2-5.1
	c0-0.1-0.1-0.2-0.1-0.3c0-0.1-0.1-0.2-0.1-0.3c0-0.1-0.1-0.2-0.1-0.3c-0.2-0.7-0.4-1.4-0.6-2c0-0.1-0.1-0.2-0.1-0.3l-0.1-0.4
	c-0.1-0.2-0.1-0.5-0.2-0.7c-0.2-0.7-0.3-1.5-0.5-2.2c-0.1-0.3-0.1-0.6-0.1-0.9l0-0.2c-0.1-0.7-0.2-1.3-0.3-2c0-0.5-0.1-0.9-0.1-1.4
	c-0.1-0.8-0.1-1.5-0.1-2.3c0-0.4,0-0.8,0-1.2c0-1.5,0.1-3.1,0.3-4.6c0.1-0.5,0.1-1,0.2-1.5c0-0.1,0-0.2,0.1-0.3
	c3.8-22.8,25.3-38.2,48-34.4c22.8,3.8,38.2,25.3,34.4,48c-3.8,22.8-25.3,38.2-48,34.4C89.8,447.9,89.5,447.8,89.2,447.8L89.2,447.8z
	"/>
<path class="st4" d="M170.8,176.3c-43.8-37-109.4-31.4-146.4,12.4S-7,298.1,36.9,335c41,34.6,101.6,32.3,139.9-5.4l127.4,107.5
	c4,3.4,10.1,2.9,13.5-1.2c3.4-4,2.9-10-1.1-13.4l0,0L189.1,315C219.8,271,211.8,210.9,170.8,176.3z M162.6,304.7
	c-27.7,32.8-76.8,37-109.7,9.3s-37-76.8-9.3-109.7s76.8-37,109.7-9.3l0,0C186.2,222.8,190.3,271.9,162.6,304.7L162.6,304.7z"/>
<path class="st11" d="M53,314c-31-26.1-36.7-71.6-13.2-104.6c-1.5,1.5-2.9,3.1-4.3,4.7C7.7,246.9,11.9,296,44.7,323.7
	s81.9,23.6,109.7-9.3c1.4-1.6,2.7-3.3,3.9-5C129.7,338.1,83.9,340.1,53,314z"/>
<path class="st10" d="M427.7,441.2c3.8-4.6,3.1-11.4-1.5-15.1c-0.5-0.4-1-0.8-1.6-1.1l-23.2-95l-16.9,5.4l25.1,94.4
	c-2.6,5.4-0.3,11.8,5.1,14.4C419.2,446.3,424.5,445.1,427.7,441.2L427.7,441.2z"/>
<polygon class="st4" points="415.7,380.4 403.3,391.1 386,406 378.3,366.9 377.5,362.8 376.9,359.6 394.5,329 409.1,329.8 
	410.1,329.9 410.1,330.1 410.3,332.2 413.3,359.1 413.4,359.8 "/>
<polygon class="st10" points="334.8,646.1 322.5,646.1 316.7,598.8 334.8,598.8 "/>
<path class="st6" d="M337.9,658l-39.5,0v-0.5c0-8.5,6.9-15.4,15.4-15.4h0l24.1,0L337.9,658z"/>
<polygon class="st10" points="462.8,647.1 450.5,647.1 444.7,599.8 462.8,599.8 "/>
<path class="st6" d="M465.9,659l-39.5,0v-0.5c0-8.5,6.9-15.4,15.4-15.4h0l24.1,0L465.9,659z"/>
<path class="st6" d="M472.6,628.2l-33,5l-48-162.5l-51,163.5l-37-5l48-190v-15l6.5-22.5l-0.7-6.1l-4.7-42.6l-2-18.5l-0.1-1.2
	c-0.2-2.1,1.2-4,3.2-4.4l0,0l15.4-3.2h25.2l14.9,4.1l1,0.3l0.5,0.1l-0.2,1.9l-3.5,29.2l-0.2,1.6l-3.4,28.1l-0.7,6.2
	c29,21,30,42,30,42L472.6,628.2z"/>
<circle class="st10" cx="378.6" cy="288.5" r="24.6"/>
<rect x="356.1" y="394.8" transform="matrix(0.9916 -0.1297 0.1297 0.9916 -48.4283 52.7098)" class="st4" width="49" height="7"/>
<path class="st10" d="M290.6,400.1c0.5,0.3,0.9,0.6,1.3,1l48.1-12.3l3.3-11.6l18.1,2.7l-3.8,21.1c-0.6,3.5-3.5,6.2-7,6.5l-56.1,5.9
	c-2.5,5.2-8.7,7.5-14,5c-5.2-2.5-7.5-8.7-5-14c2.5-5.2,8.7-7.5,14-5C289.9,399.6,290.3,399.8,290.6,400.1z"/>
<path class="st4" d="M364.6,335.2l-8.5-6.5c-2.3-0.9-5.4,1.6-6,4l-12,49l25,18l3.5-5.5L364.6,335.2z"/>
<g class="st12">
	<path d="M413.3,359.1c-2.1,0.8-4.3,1.6-6.5,2.2c-0.7,0.2-1.4,0.4-2.1,0.6c-4.7,1.3-9.5,2.1-14.3,2.3c-2.1,0.1-4.2,0-6.3-0.2
		c-2.2-0.2-4.4-0.7-6.6-1.3c-0.1,0-0.2,0-0.2-0.1c-4.5-1.3-8.6-3.6-12-6.8c-0.8-0.7-1.5-1.5-2.1-2.4c-3.8-4.6-5.4-10.6-4.6-16.5
		c0.1-0.5,0.2-1.1,0.3-1.6c0.4-1.4,0.9-2.8,1.5-4.1c0.3-0.6,0.6-1.2,0.9-1.8l11.3-3.8h21.5l14.9,4.1l1,0.1l0,0.2l0.5,0.1l-0.2,1.9
		L413.3,359.1z"/>
</g>
<path class="st6" d="M359.8,268.2c-4.6-0.6-9.6-0.2-13.2,2.8s-4.7,9-1.3,12.2c3,2.8,7.7,2.1,11.7,2.9c7.1,1.6,12.2,7.9,12.4,15.2
	c-0.1,10.2-9.8,17.9-11.6,27.9c-1.2,6.8,1.7,14,6.7,18.9s11.8,7.4,18.8,8.1s13.9-0.4,20.6-2.1c6.7-1.8,13.4-4.3,19-8.4
	s10.3-9.8,12.1-16.6s0.5-14.5-4.2-19.6c-5.4-5.9-14.3-8-18.9-14.5c-5.2-7.3-3.3-17.7-7.5-25.6c-2.8-5.3-8.1-8.9-13.8-10.8
	s-11.7-2.3-17.7-2.5c-3.1-0.1-6.4-0.1-9.3,1s-5.5,3.8-5.6,6.9S359.8,268.2,359.8,268.2z"/>
<path class="st9" d="M589.7,659.4h-381c-0.6,0-1-0.4-1-1s0.4-1,1-1h381c0.6,0,1,0.4,1,1S590.3,659.4,589.7,659.4z"/>
</svg>
